<?xml version="1.0" encoding="UTF-8" standalone="no"?>
<!-- Created with Inkscape (http://www.inkscape.org/) -->

<svg
   version="1.1"
   id="svg1"
   width="1793.3333"
   height="1342.6667"
   viewBox="0 0 1793.3333 1342.6667"
   sodipodi:docname="logo_ensta_new2.png.pagespeed.ce.6ckDRmYhwW.png"
   inkscape:export-filename="logo_ensta_new2.png.pagespeed.ce.6ckDRmYhwW.svg"
   inkscape:export-xdpi="96"
   inkscape:export-ydpi="96"
   xmlns:inkscape="http://www.inkscape.org/namespaces/inkscape"
   xmlns:sodipodi="http://sodipodi.sourceforge.net/DTD/sodipodi-0.dtd"
   xmlns="http://www.w3.org/2000/svg"
   xmlns:svg="http://www.w3.org/2000/svg">
  <defs
     id="defs1" />
  <sodipodi:namedview
     id="namedview1"
     pagecolor="#ffffff"
     bordercolor="#000000"
     borderopacity="0.25"
     inkscape:showpageshadow="2"
     inkscape:pageopacity="0.0"
     inkscape:pagecheckerboard="0"
     inkscape:deskcolor="#d1d1d1">
    <inkscape:page
       x="0"
       y="0"
       width="1793.3333"
       height="1342.6667"
       id="page2"
       margin="0"
       bleed="0" />
  </sodipodi:namedview>
  <g
     inkscape:groupmode="layer"
     inkscape:label="Image"
     id="g1">
    <g
       id="g2">
      <path
         style="fill:#fefefe"
         d="M 0,671.33337 V 0 H 896.66663 1793.3333 V 671.33337 1342.6667 H 896.66663 0 Z M 558.93164,1049.529 c 0.0703,-1.8851 -0.0248,-2.7159 -0.33333,-2.9116 -0.23742,-0.1506 -1.49654,-0.2761 -2.79804,-0.2789 -1.30151,0 -3.51401,-0.1021 -4.91667,-0.2207 -2.54309,-0.215 -2.55029,-0.2183 -2.55029,-1.1834 v -0.9678 l 5,0.2328 5,0.2329 0.003,-0.7995 c 0.002,-0.4397 0.0957,-1.5717 0.20909,-2.5156 l 0.20619,-1.7162 -5.04242,-0.2431 -5.04243,-0.2432 v -0.9585 -0.9585 l 4.91667,0.1958 c 2.70416,0.1077 5.08763,0.2471 5.29658,0.3099 0.47748,0.1435 0.78675,-1.359 0.78675,-3.8221 v -1.902 l -8.53017,-0.415 c -4.69159,-0.2283 -8.62002,-0.3252 -8.72985,-0.2153 -0.27975,0.2797 -1.20107,19.8344 -0.94649,20.089 0.2059,0.2059 14.44783,1.0497 16.37318,0.9701 l 1,-0.041 z m 35.93621,-2.4016 c 1.53933,-0.4799 2.79685,-1.0424 2.79449,-1.25 -0.002,-0.2075 -0.30631,-1.3409 -0.67544,-2.5186 -0.36913,-1.1776 -0.55469,-2.2467 -0.41237,-2.3757 0.14233,-0.1289 1.02453,-0.4827 1.96044,-0.7861 5.15159,-1.6703 7.51992,-5.1329 6.47888,-9.4724 -0.85723,-3.5733 -3.87314,-5.6347 -7.76464,-5.307 -1.93681,0.1631 -11.0746,2.7075 -11.6915,3.2555 -0.44431,0.3947 5.46584,19.327 6.03336,19.327 0.26289,0 1.73744,-0.3927 3.27678,-0.8727 z m -0.71856,-12.971 c -0.65797,-2.2634 -0.4878,-2.523 1.79769,-2.7426 1.49886,-0.144 1.70605,-0.078 2.22303,0.7113 1.04595,1.5963 0.0297,3.1519 -2.40894,3.6876 -1.05534,0.2317 -1.06613,0.2207 -1.61178,-1.6563 z m -70.51149,11.988 c 2.16832,-0.6439 4.42437,-2.6383 5.61558,-4.9643 1.2466,-2.4342 1.45413,-6.5299 0.4373,-8.6304 -0.92524,-1.9113 -3.24539,-4.0493 -5.52853,-5.0946 -1.78131,-0.8155 -9.36167,-3.1217 -10.26088,-3.1217 -0.33386,0 -1.28505,2.8429 -3.2364,9.6729 -1.51997,5.3201 -2.70387,9.7302 -2.6309,9.8004 0.12348,0.1186 7.98292,2.3065 9.46601,2.635 1.51582,0.3358 4.49129,0.1917 6.13782,-0.2973 z m -6.72116,-6.0408 c -0.32083,-0.084 -0.58333,-0.2408 -0.58333,-0.3487 0,-0.108 0.47601,-1.897 1.0578,-3.9756 0.68391,-2.4434 1.21789,-3.7792 1.51071,-3.7792 0.88705,0 2.77842,0.9803 3.59841,1.8651 1.46759,1.5835 0.84928,5.2315 -1.032,6.0887 -0.81259,0.3702 -3.3841,0.4548 -4.55159,0.1497 z m 106.66976,-4.0177 c 1.04373,-0.5242 1.07857,-0.6053 0.88654,-2.0657 l -0.1999,-1.5201 3.02924,-1.7293 3.02923,-1.7292 0.96568,0.8126 c 0.53113,0.4469 1.15123,0.8125 1.37801,0.8125 0.41082,0 6.32477,-3.2755 6.32477,-3.503 0,-0.066 -3.92832,-3.1556 -8.72961,-6.8662 l -8.72961,-6.7466 -2.39976,1.2851 c -4.0838,2.187 -3.79378,0.6159 -2.35373,12.7502 0.69061,5.8193 1.31986,10.7774 1.39834,11.0179 0.10263,0.3146 0.72826,0.099 2.22853,-0.7676 1.14721,-0.6628 2.57473,-1.4505 3.17227,-1.7506 z m -0.36028,-9.5048 c -0.0981,-0.4112 -0.28558,-1.4901 -0.4167,-2.3975 l -0.2384,-1.6497 1.65336,1.3164 c 0.90934,0.724 1.66108,1.4664 1.67052,1.6498 0.009,0.1833 -0.54706,0.6698 -1.23666,1.081 l -1.25382,0.7477 z m -143.26389,-8.6518 c 2.9541,-4.1639 5.37108,-7.706 5.37108,-7.8713 0,-0.3336 -2.61627,-2.235 -2.78514,-2.0241 -0.69874,0.8724 -10.92564,15.4469 -10.97754,15.6442 -0.10151,0.3859 2.55424,2.3259 2.80827,2.0513 0.11674,-0.1261 2.62924,-3.6362 5.58333,-7.8001 z m 172.62153,-1.6643 1.75045,-1.7868 -1.83379,-1.811 c -1.00858,-0.9961 -1.83378,-1.9737 -1.83378,-2.1724 0,-1.0131 0.76317,-1.0595 4.01476,-0.2442 l 3.3036,0.8284 1.92415,-1.6748 c 2.99365,-2.6058 3.9449,-3.691 3.39375,-3.8719 -0.25828,-0.085 -1.9696,-0.4822 -3.80293,-0.8832 -1.83333,-0.4011 -3.4301,-0.7853 -3.54838,-0.8538 -0.11828,-0.069 -0.0619,-0.7279 0.1252,-1.4652 0.97241,-3.83096 -2.55267,-7.99671 -6.76688,-7.99671 -2.60874,0 -4.79982,1.37344 -9.72287,6.09461 l -4.24627,4.0721 6.91293,7.3731 6.91294,7.3731 0.83333,-0.5972 c 0.45833,-0.3285 1.62104,-1.4013 2.58379,-2.3841 z m -7.00893,-11.0733 -1.23299,-1.4751 1.70594,-1.3583 c 1.84113,-1.4659 2.60983,-1.653 3.42838,-0.8344 0.89003,0.89 0.61799,2.0555 -0.85198,3.6503 -0.75668,0.8209 -1.47491,1.4925 -1.59608,1.4925 -0.12116,0 -0.77513,-0.6637 -1.45327,-1.475 z m -178.64754,2.7144 6.75455,-6.7605 -1.15488,-1.1194 -1.15489,-1.11935 -4.74771,4.54045 c -2.61125,2.4973 -4.78262,4.5056 -4.82528,4.463 -0.0426,-0.043 0.41585,-3.8274 1.0189,-8.41058 l 1.09646,-8.33299 -1.03002,-1.09097 -1.03001,-1.09096 -6.92174,6.91585 -6.92174,6.91585 1.23445,1.2642 1.23445,1.2642 4.59341,-4.5846 c 2.52637,-2.52156 4.59341,-4.38455 4.59341,-4.13999 0,0.24456 -0.45806,3.90209 -1.01792,8.12789 l -1.01791,7.6832 1.0833,1.1176 c 0.59582,0.6148 1.16775,1.1177 1.27096,1.1177 0.10322,0 3.22721,-3.0422 6.94221,-6.7606 z m 101.77016,2.9202 c 42.88933,-4.8355 78.55658,-35.79362 89.47263,-77.65958 1.76459,-6.76764 3.17956,-15.59251 3.15175,-19.65671 l -0.0115,-1.67662 -0.92172,2.33505 c -4.94847,12.53635 -15.82118,23.12501 -28.38867,27.64703 -5.54228,1.99422 -8.73524,2.56735 -15.33333,2.75234 -6.9704,0.19542 -10.15544,-0.19282 -15.75888,-1.92095 -6.74176,-2.0792 -7.87755,-2.74236 -26.30618,-15.3595 -7.46078,-5.10802 -13.70371,-9.2873 -13.87318,-9.2873 -0.16946,0 -3.57919,4.6125 -7.57717,10.25 -22.68326,31.98539 -38.25522,52.84444 -48.4297,64.87287 l -2.50055,2.9562 0.80616,0.61182 c 1.40158,1.06369 10.3245,5.53355 14.1395,7.08315 16.2752,6.6104 33.96999,9.032 51.53081,7.0522 z m 105.6217,-18.35967 c 1.086,-1.44828 1.87095,-2.73763 1.74435,-2.86523 -0.12661,-0.1276 -3.8302,-2.87063 -8.2302,-6.09562 l -8,-5.86362 -0.72411,0.90196 c -0.39827,0.49608 -1.33133,1.76299 -2.07349,2.81537 l -1.34937,1.9134 8.22541,6.01721 c 4.52398,3.30947 8.27209,5.97054 8.32914,5.91349 0.0571,-0.0571 0.99227,-1.28868 2.07827,-2.73696 z m -174.02267,-3.8903 c 7.99132,-15.38762 20.40012,-36.47173 39.93118,-67.84809 3.91611,-6.29117 7.15442,-11.56985 7.19625,-11.7304 0.0418,-0.16056 -3.44893,-2.721 -7.75727,-5.68988 -4.30833,-2.96887 -13.83333,-9.53167 -21.16666,-14.58399 -19.07515,-13.14187 -34.46161,-23.94201 -43.57174,-30.58411 l -7.90507,-5.7635 -2.13737,3.89518 c -4.04889,7.3788 -7.47335,15.97337 -9.58731,24.06185 -4.09285,15.66012 -4.3593,33.30379 -0.75006,49.66667 1.15557,5.2389 4.30998,14.5989 6.68403,19.83333 6.0712,13.38612 15.26637,25.83401 26.14295,35.3908 3.09654,2.7208 9.90691,8.07352 10.29123,8.08855 0.0917,0.004 1.2751,-2.1278 2.62984,-4.73641 z m -55.78518,0.60436 c 1.27775,-0.97458 2.15535,-2.58791 2.15535,-3.96226 0,-0.44168 -0.45,-2.26494 -1,-4.0517 -0.55,-1.78677 -1,-3.5559 -1,-3.93142 0,-1.04165 0.97517,-1.90192 2.15596,-1.90192 2.08905,0 3.84404,2.88658 3.84404,6.32263 0,1.97017 0.0185,2.0108 0.91666,2.01526 0.50417,0.002 1.27417,0.10023 1.71112,0.21717 l 0.79445,0.21261 -0.14706,-2.8005 c -0.1249,-2.3785 -0.31641,-3.1182 -1.27088,-4.90883 -2.35709,-4.42199 -5.92832,-5.77808 -9.36886,-3.5576 -2.52519,1.62971 -2.77261,3.65679 -1.10082,9.0188 0.97692,3.13333 0.89011,4.30124 -0.36212,4.87179 -2.01911,0.91997 -4.14526,-1.38445 -4.47731,-4.85271 l -0.19518,-2.03862 -1.54132,-0.0999 c -1.86414,-0.1208 -2.04593,0.18242 -1.63245,2.72291 0.50645,3.11178 2.34722,5.98472 4.63078,7.22738 1.74466,0.9494 4.26574,0.73397 5.88764,-0.50311 z m 237.92989,-12.21096 c 3.20919,-2.12568 6.14108,-6.55957 6.84096,-10.34556 0.56288,-3.04489 -0.39352,-5.69323 -2.57809,-7.13891 -3.43016,-2.26998 -6.53326,-1.02165 -10.60142,4.2648 -1.46027,1.89756 -2.76934,2.54163 -2.76934,1.36251 0,-0.95668 1.96274,-3.66269 3.35795,-4.62957 1.50191,-1.04083 1.50622,-0.96108 -0.21866,-4.05059 l -1.15437,-2.06764 -1.15638,0.68229 c -3.49826,2.06402 -6.60207,7.48533 -6.56627,11.46906 0.0246,2.73707 1.51549,4.96431 4.02495,6.01283 2.94923,1.23226 5.5462,-0.15406 9.26441,-4.94556 2.16783,-2.79359 3.65313,-2.55227 2.13333,0.34661 -0.86815,1.65591 -1.90084,2.80568 -3.57988,3.98573 l -1.39493,0.98038 0.84344,1.80197 c 0.4639,0.99109 0.9754,2.13948 1.13668,2.55198 0.37962,0.97097 0.5601,0.95004 2.41762,-0.28033 z m -253.69121,-6.36971 c 0.50417,-0.18251 0.91667,-0.4821 0.91667,-0.66575 0,-0.18366 -0.50635,-1.50236 -1.12523,-2.93046 l -1.12523,-2.59655 7.20856,-3.07092 c 3.96471,-1.689 7.31578,-3.17033 7.44682,-3.29185 0.13104,-0.12152 -0.094,-0.91516 -0.5,-1.76365 l -0.73826,-1.5427 -7.28107,3.13142 c -4.00459,1.72229 -7.39168,3.06308 -7.52685,2.97953 -0.13518,-0.0835 -0.66962,-1.17125 -1.18764,-2.41713 -0.51802,-1.24588 -1.06346,-2.40276 -1.21209,-2.57085 -0.24167,-0.2733 -2.95901,0.68454 -2.95901,1.04303 0,0.0749 1.37702,3.35779 3.06004,7.29533 2.45254,5.73788 3.16393,7.1168 3.58333,6.94578 0.28781,-0.11736 0.93579,-0.36271 1.43996,-0.54523 z m 926.68612,-18.29326 c 4.4471,-0.66778 7.713,-1.6625 11.3972,-3.47129 5.7688,-2.8323 9.4887,-6.4517 11.9926,-11.66875 2.1008,-4.37717 2.675,-7.08629 2.6493,-12.5 -0.031,-6.58148 -1.3173,-10.62852 -4.7065,-14.8098 -4.4912,-5.54085 -11.5974,-8.95917 -27.4354,-13.19739 -8.5751,-2.29468 -12.2827,-3.99318 -14.1981,-6.5043 -0.7807,-1.02358 -0.9749,-1.65246 -1.0789,-3.49367 -0.1515,-2.68037 0.4041,-4.09647 2.2676,-5.78008 2.2032,-1.99039 4.5637,-2.67813 9.176,-2.67344 3.3082,0.003 4.5766,0.16114 7.3334,0.91223 3.7428,1.01973 8.6326,3.24788 12.7764,5.82184 1.527,0.94854 2.877,1.72363 3,1.72243 0.4662,-0.005 10.1065,-14.38788 9.9378,-14.82734 -0.2711,-0.7066 -4.5736,-3.61093 -7.8756,-5.31634 -6.6217,-3.42002 -13.3416,-5.2919 -20.8636,-5.81174 -15.9255,-1.10062 -27.9745,4.60625 -33.118,15.68596 -1.7611,3.79371 -2.357,6.72761 -2.357,11.60497 0,14.05499 6.725,20.91308 25.6678,26.17564 13.8304,3.84226 16.9994,5.00787 19.4392,7.15009 2.2612,1.9853 2.9613,4.45538 2.1013,7.41356 -1.3757,4.73215 -7.4039,7.11404 -15.8191,6.25048 -1.8732,-0.19223 -4.7146,-0.718 -6.3142,-1.16838 -3.9535,-1.11314 -10.2478,-4.32715 -14.045,-7.17171 -1.7252,-1.29235 -3.2252,-2.21466 -3.3334,-2.04958 -0.1081,0.16509 -2.6716,3.25532 -5.6966,6.86718 -3.025,3.61187 -5.5449,6.69397 -5.5998,6.84913 -0.1544,0.43683 6.0952,5.01302 9.4375,6.91035 6.6532,3.77697 14.0284,6.19529 21.9956,7.21237 2.2696,0.28973 11.0411,0.2022 13.2695,-0.13242 z m -575.85159,-45.72337 -0.0846,-44.75 h -9.83333 -9.83333 l -0.0845,44.75 -0.0845,44.75 h 10.00241 10.00242 z m 57.74879,31.41667 v -13.33334 h 8.48692 c 4.66781,0 10.03031,-0.16619 11.91667,-0.36931 17.72502,-1.90863 29.09254,-12.31822 30.56727,-27.9914 0.3129,-3.3255 0.0488,-8.09036 -0.60963,-11.00063 -1.54442,-6.8259 -5.74775,-13.26431 -11.19934,-17.15448 -4.69115,-3.34754 -10.96712,-5.50309 -17.94028,-6.16178 -2.25874,-0.21336 -11.059,-0.31306 -22.38828,-0.25364 l -18.66667,0.0979 -0.0845,44.75 -0.0845,44.75 h 10.00121 10.00121 z m 0,-44.69667 v -13.69667 l 9.74999,0.14105 c 10.30308,0.14905 11.39614,0.29663 14.71402,1.98665 2.15073,1.09551 4.36523,3.42581 5.4049,5.68753 0.86654,1.88509 0.9557,2.41921 0.95984,5.75061 0.004,3.472 -0.0544,3.7924 -1.07585,5.86834 -1.95877,3.98093 -6.01861,6.85362 -10.75291,7.6086 -1.19166,0.19004 -5.95416,0.34665 -10.58333,0.34804 l -8.41666,0.003 z m 134.99999,44.69667 v -13.33334 h 8.51314 c 11.94878,0 17.0355,-0.65839 23.05597,-2.98423 8.0277,-3.10125 14.5936,-9.3772 17.386,-16.61815 1.698,-4.40294 2.1442,-7.44218 1.9613,-13.35653 -0.1349,-4.36078 -0.3044,-5.68464 -1.0418,-8.13995 -3.7834,-12.59664 -13.8503,-20.18031 -28.64353,-21.57781 -2.27034,-0.21448 -11.03917,-0.31415 -22.39775,-0.25457 l -18.66666,0.0979 -0.0845,44.75 -0.0845,44.75 h 10.0012 10.00121 z m 0,-44.69667 v -13.69667 l 9.75,0.14105 c 10.30308,0.14905 11.39613,0.29663 14.71401,1.98665 2.14784,1.09404 4.3651,3.42612 5.4076,5.68753 0.8705,1.88835 0.9581,2.41291 0.9598,5.74477 0,3.28268 -0.092,3.86627 -0.8914,5.57269 -1.1738,2.50424 -3.47394,4.91935 -5.93414,6.23062 -3.13544,1.67117 -5.88164,2.03002 -15.53519,2.03002 h -8.47068 z m 86.13921,47.94667 4.0272,-9.91667 h 18.8718 18.8717 l 3.0751,7.58333 c 1.6912,4.17084 3.5255,8.67084 4.0761,10 l 1.0011,2.41667 h 10.3247 c 9.6832,0 10.3129,-0.0362 10.1347,-0.58333 -0.1045,-0.32084 -8.7144,-20.60834 -19.1331,-45.08334 l -18.943,-44.5 -9.0415,-0.0887 c -8.6085,-0.0844 -9.0578,-0.0582 -9.3824,0.54823 -0.4925,0.92024 -37.7381,88.42671 -37.936,89.12873 -0.1564,0.55423 0.4184,0.58317 9.9302,0.5 l 10.0962,-0.0883 z m 11.5007,-28.33334 c 1.3961,-3.61019 11.133,-27.13577 11.3045,-27.31311 0.1592,-0.16458 10.5995,24.66173 11.6667,27.74236 0.07,0.20146 -4.2351,0.32075 -11.5751,0.32075 h -11.6862 z m 103.6934,24.08334 v -14.33334 l 7.5833,0.0112 7.5834,0.0112 9.6016,14.32212 9.6017,14.32212 h 11.4817 c 6.3149,0 11.4816,-0.0805 11.4816,-0.17899 0,-0.0984 -4.7412,-7.10338 -10.5359,-15.56653 -5.7948,-8.46314 -10.5987,-15.55071 -10.6752,-15.75014 -0.077,-0.19943 1.0965,-0.95699 2.6067,-1.68347 9.7567,-4.69353 15.2852,-13.03425 16.1203,-24.32087 0.2411,-3.25786 -0.2153,-8.10549 -1.067,-11.33334 -1.0341,-3.91921 -3.2149,-7.86267 -5.9645,-10.78553 -4.1402,-4.40106 -8.5823,-6.93213 -15.0414,-8.57064 -5.1348,-1.30254 -10.027,-1.51738 -32.1096,-1.41009 l -20.5,0.0996 -0.085,44.75 -0.085,44.75 h 10.0012 10.0012 z m 0,-44.50001 v -12.88496 l 11.9167,0.12744 c 11.2035,0.11982 12.0493,0.17143 14.1339,0.86242 4.2099,1.39554 7.0922,4.05123 8.1075,7.47031 0.2797,0.94186 0.5086,2.95863 0.5086,4.48172 0,5.9242 -2.9423,9.93718 -8.6958,11.86043 -1.9918,0.66579 -2.95,0.72313 -14.0542,0.84105 l -11.9167,0.12656 z m 108,14 v -44.83333 h -9.8333 -9.8334 v 44.83333 44.83334 h 9.8334 9.8333 z m -856.05737,37.69554 c 4.33991,-1.17579 8.51195,-2.30218 9.27119,-2.50309 l 1.38044,-0.3653 -0.34316,-1.41357 c -0.18874,-0.77746 -0.45855,-1.54218 -0.59957,-1.69936 -0.22294,-0.24851 -17.56065,4.19877 -18.5059,4.74692 -0.34999,0.20296 0.33893,3.3722 0.73304,3.3722 0.0953,0 3.72404,-0.96201 8.06396,-2.1378 z m -9.09098,-12.05528 c 0.66234,-0.17791 0.67265,-0.28207 0.31275,-3.15878 l -0.37218,-2.97481 1.02058,-0.17184 c 0.56132,-0.0945 4.09024,-0.55317 7.84205,-1.01925 3.75181,-0.46607 6.8957,-0.92163 6.98642,-1.01236 0.23148,-0.23147 0.0202,-2.92134 -0.2511,-3.19664 -0.1229,-0.12472 -3.73099,0.21774 -8.01798,0.76102 -4.287,0.54329 -7.852,0.93033 -7.92224,0.86009 -0.0702,-0.0702 -0.29743,-1.44254 -0.50488,-3.04957 l -0.37717,-2.92185 -1.50758,0.20663 c -0.82917,0.11365 -1.56203,0.26108 -1.62857,0.32762 -0.12179,0.1218 1.45058,13.39495 1.7524,14.79282 0.16661,0.77169 1.12388,0.97154 2.6675,0.55692 z m 204.05164,-5.4492 c 6.02412,-1.24317 10.85767,-3.83675 15.26529,-8.19105 6.40093,-6.32349 9.36154,-13.37685 9.30434,-22.16667 -0.0574,-8.82604 -3.3255,-16.37723 -9.64727,-22.29094 -1.30709,-1.22272 -7.79796,-5.7595 -16.23712,-11.34891 -12.37096,-8.19352 -14.1047,-9.24473 -14.43563,-8.75269 -5.02827,7.47627 -18.41161,26.96703 -25.38525,36.96968 -5.01441,7.19243 -9.19504,13.28022 -9.29028,13.52841 -0.11127,0.28996 0.75547,1.04611 2.42475,2.11536 1.42886,0.91525 7.84792,5.04381 14.26459,9.17458 6.41666,4.13077 12.4299,7.89688 13.36275,8.36913 5.92094,2.99745 13.64845,3.98098 20.37383,2.5931 z m 80.2376,-2.77439 c 0.31815,-2.94871 0.85914,-10.21351 0.85914,-11.53726 v -1.25095 l -9.55645,-0.72999 c -5.25605,-0.4015 -9.61397,-0.67248 -9.68426,-0.60219 -0.15962,0.15962 -1.07625,11.20746 -1.08568,13.08538 -0.007,1.38135 -0.007,1.38169 1.40973,1.52977 0.77917,0.0815 1.46247,0.11391 1.51845,0.0721 0.056,-0.0418 0.24955,-2.08019 0.43015,-4.52977 0.18059,-2.44957 0.39683,-4.90376 0.48053,-5.45376 l 0.15218,-1 2.41768,0.16666 c 2.32754,0.16045 2.416,0.19774 2.37264,1 -0.0248,0.45834 -0.15531,2.67084 -0.29009,4.91667 l -0.24506,4.08333 h 1.54009 c 0.99093,0 1.55275,-0.14857 1.57557,-0.41666 0.6676,-7.84041 0.83401,-9.08045 1.21453,-9.05 0.22916,0.0183 1.33731,0.0558 2.46256,0.0833 l 2.04589,0.05 -0.19749,1.75 c -0.10862,0.9625 -0.29968,3.42257 -0.42457,5.46683 -0.24987,4.08987 -0.30097,3.9815 1.92295,4.07784 0.83725,0.0363 0.90441,-0.07 1.08151,-1.71134 z m -274.0484,-17.93671 c 1.59757,-0.44365 3.40877,-2.02604 4.32855,-3.78173 1.04546,-1.9956 1.04395,-6.46629 -0.003,-8.42892 -0.90102,-1.68928 -2.552,-3.00754 -4.5014,-3.59422 -1.35331,-0.40728 -13.46922,-1.40772 -13.72972,-1.13369 -0.0655,0.0689 -0.17187,0.87527 -0.23638,1.79194 l -0.1173,1.66666 6.21996,0.39964 c 3.90429,0.25086 6.66276,0.58466 7.40936,0.89661 3.11883,1.30313 3.41042,6.36028 0.47407,8.22211 -1.05309,0.66773 -1.3769,0.68941 -7.10339,0.47567 -3.3,-0.12318 -6.375,-0.24722 -6.83333,-0.27566 -0.77615,-0.0482 -0.84018,0.0662 -0.933,1.66702 l -0.0997,1.71871 2.76633,0.2016 c 1.52149,0.11088 3.36634,0.24974 4.09967,0.30859 3.15779,0.25337 7.09352,0.18936 8.25911,-0.13433 z m 268.52475,-7.04623 6.45053,-0.73722 -0.22227,-1.67554 c -0.12225,-0.92155 -0.26195,-1.71523 -0.31045,-1.76373 -0.0485,-0.0485 -3.00122,0.23573 -6.5616,0.63161 -6.01996,0.66938 -6.56047,0.68237 -7.71612,0.18553 -3.02746,-1.30156 -3.57445,-6.04915 -0.93926,-8.1523 0.83354,-0.66525 2.55394,-1.01833 7.68197,-1.57659 6.65249,-0.72422 6.33431,-0.61854 6.32822,-2.10184 -0.009,-2.29893 0.12368,-2.27078 -6.88169,-1.45537 -7.34145,0.85453 -9.20435,1.53417 -10.9282,3.98691 -0.85364,1.21458 -1.02642,1.80822 -1.13141,3.88728 -0.22925,4.53987 1.52282,7.67544 4.94641,8.85225 2.28877,0.78674 1.64214,0.79238 9.28387,-0.081 z M 561.98192,885.91672 c 17.32013,-27.48636 37.70485,-58.64071 38.23792,-58.43976 0.51548,0.19432 35.81485,23.52139 41.1024,27.16192 2.37683,1.63648 5.70289,4.35075 7.77044,6.34116 l 3.61484,3.47998 -1.2048,-2.64665 c -2.63913,-5.79758 -7.47424,-13.59277 -12.28954,-19.81332 -3.44108,-4.44527 -12.6577,-13.73214 -17.21321,-17.34439 -14.46004,-11.46599 -31.48187,-18.83386 -50.15616,-21.71002 -5.62993,-0.8671 -18.37833,-1.19835 -24.40891,-0.63422 -28.59819,2.67519 -54.27985,16.39314 -72.18678,38.55883 -1.05315,1.30361 -1.91123,2.50361 -1.90685,2.66666 0.004,0.16306 1.39187,1.10787 3.08333,2.09958 10.35603,6.07176 40.67399,25.15976 67.74204,42.64997 6.23334,4.02771 11.40941,7.33597 11.50239,7.35168 0.093,0.0157 2.93378,-4.35892 6.31289,-9.72142 z M 418.472,875.75005 c 0.36055,-1.5125 0.81434,-2.74863 1.00843,-2.74695 0.19409,0.002 3.72788,0.88682 7.85288,1.96699 4.125,1.08018 7.52916,1.93715 7.5648,1.90439 0.19859,-0.18258 0.87609,-3.21132 0.74717,-3.34023 -0.0846,-0.0847 -3.45196,-1.00714 -7.48293,-2.04999 -4.03097,-1.04284 -7.46213,-2.019 -7.62481,-2.16925 -0.24671,-0.22786 0.23074,-2.82133 0.98611,-5.35641 0.12291,-0.41247 -0.20783,-0.63441 -1.38838,-0.93168 -0.85234,-0.21462 -1.59152,-0.34597 -1.64262,-0.29188 -0.30327,0.32102 -3.83762,14.75394 -3.70048,15.11133 0.1749,0.45577 1.24664,0.77165 2.36604,0.69736 0.5404,-0.0359 0.7756,-0.53599 1.31379,-2.79368 z m 262.62043,-1.66299 0.4971,-1.24632 2.36361,0.1092 c 3.18934,0.14734 5.36937,-0.60364 7.49573,-2.58211 2.23539,-2.07993 3.21033,-4.23492 3.21451,-7.10527 0.006,-4.1632 -1.90375,-7.51594 -5.37714,-9.43979 -1.59273,-0.88219 -2.09326,-0.9885 -4.6196,-0.98118 -3.31384,0.01 -5.16717,0.73739 -7.29412,2.86434 -3.77336,3.77336 -3.84551,9.84224 -0.16568,13.9351 1.47752,1.64336 1.48779,1.67133 0.97651,2.66004 -0.75538,1.46074 -0.6507,1.80497 0.73499,2.41697 1.69432,0.7483 1.61475,0.7714 2.17409,-0.63098 z m 2.72691,-6.58741 c 0.46601,-1.05374 0.8473,-2.03093 0.8473,-2.17155 0,-0.24764 -2.40203,-1.32805 -2.95261,-1.32805 -0.14985,0 -0.55287,0.825 -0.89562,1.83334 -0.34274,1.00833 -0.73189,1.83333 -0.86477,1.83333 -0.45787,0 -1.55229,-1.8427 -1.93205,-3.25306 -0.78128,-2.90145 0.82245,-5.92129 3.89054,-7.3259 4.68448,-2.14463 9.43237,0.76367 9.41569,5.76753 -0.0114,3.42026 -2.71145,6.15197 -6.34009,6.41444 l -2.01568,0.1458 z m -7.30564,-23.74869 8.41396,-4.58243 -0.81408,-1.60652 -0.81409,-1.60652 -1.73309,0.96894 c -0.9532,0.53291 -4.7331,2.59333 -8.39976,4.57871 -3.66667,1.98538 -6.73246,3.66268 -6.81287,3.72733 -0.19883,0.15985 1.24769,3.10291 1.52508,3.10291 0.12148,0 4.00716,-2.06209 8.63485,-4.58242 z m -227.69131,0.025 c 3.3975,-1.19245 6.2581,-3.78138 7.79079,-7.0509 0.79178,-1.68903 0.8868,-2.28458 0.8868,-5.55838 0,-3.35014 -0.0814,-3.83257 -0.9433,-5.58846 -1.3125,-2.67398 -3.73174,-5.04713 -6.46495,-6.34178 -2.07366,-0.98225 -2.53111,-1.06976 -5.59175,-1.06976 -3.03224,0 -3.52913,0.0928 -5.50095,1.02727 -2.77678,1.31595 -5.15582,3.695 -6.47178,6.47177 -0.94462,1.99323 -1.02727,2.44922 -1.02727,5.66762 0,3.19668 0.0849,3.67333 0.97952,5.5 2.99503,6.11527 10.10029,9.13365 16.34289,6.94262 z m 220.32151,-13.07439 7.50202,-5.79844 -1.01765,-1.28489 c -0.55971,-0.7067 -1.11755,-1.28233 -1.23964,-1.27919 -0.1221,0.003 -2.43849,1.72814 -5.14754,3.83334 -2.70905,2.10519 -4.98107,3.82762 -5.04895,3.82762 -0.0679,0 0.7956,-3.5779 1.91884,-7.95088 l 2.04224,-7.95088 -0.82662,-1.21351 c -0.45465,-0.66743 -0.97663,-1.21316 -1.15996,-1.21272 -0.50696,10e-4 -14.98849,11.29058 -15.07934,11.75541 -0.0436,0.22325 0.34843,0.91905 0.87124,1.54621 l 0.95057,1.14029 4.9621,-3.82729 c 2.72915,-2.10502 5.1374,-3.93197 5.35167,-4.05989 0.21427,-0.12793 -0.56725,3.4749 -1.73671,8.00629 l -2.12629,8.23889 0.85046,1.11501 c 0.46776,0.61326 0.98121,1.06958 1.141,1.01404 0.1598,-0.0555 3.66645,-2.71027 7.79256,-5.89941 z m -19.34393,-22.53489 6.16203,-7.33334 -1.23102,-1.07082 c -0.67705,-0.58895 -1.32333,-1.07645 -1.43617,-1.08333 -0.16661,-0.0102 -3.12181,3.37197 -4.85728,5.559 -0.33606,0.42351 -0.92129,0.0551 -3.87951,-2.44254 l -3.48375,-2.94129 2.04618,-2.44422 c 3.34407,-3.99459 3.22824,-3.65833 1.70165,-4.93997 -0.72522,-0.60887 -1.41075,-1.00124 -1.52339,-0.87193 -2.38861,2.74202 -12.33501,14.79338 -12.24695,14.83877 0.0672,0.0347 0.66379,0.56123 1.3257,1.17018 l 1.20346,1.10718 2.56548,-3.02385 c 1.41102,-1.66311 2.69508,-3.02384 2.85346,-3.02384 0.38602,0 6.66678,5.29361 6.66678,5.61896 0,0.14063 -1.12715,1.59462 -2.50477,3.23108 l -2.50476,2.97538 1.25476,1.07393 c 0.69012,0.59066 1.36081,1.04244 1.49042,1.00396 0.12961,-0.0385 3.00857,-3.36998 6.39768,-7.40331 z m -170.05412,-0.5 c 0.68523,-0.45834 1.24773,-0.94813 1.25,-1.08844 0.002,-0.14031 -0.77244,-1.3228 -1.72159,-2.62775 l -1.72571,-2.37264 0.97227,-0.70559 c 2.79722,-2.02996 3.71413,-2.84788 4.59072,-4.09511 1.12938,-1.60692 1.4811,-3.8147 0.89205,-5.59954 -0.4829,-1.4632 -2.06342,-3.35237 -3.36987,-4.02796 -1.18008,-0.61024 -3.98615,-0.62323 -5.41775,-0.0251 -1.39567,0.58315 -8.28196,5.52942 -8.14912,5.85334 0.2556,0.62325 11.11985,15.66403 11.26646,15.5976 0.0917,-0.0415 0.72731,-0.45051 1.41254,-0.90884 z m -6.15958,-11.6599 -1.89139,-2.6599 2.1118,-1.50696 c 1.1615,-0.82882 2.55937,-1.59646 3.10639,-1.70586 1.15262,-0.23053 2.8893,0.54053 3.41036,1.51415 0.50747,0.94822 0.41673,2.76516 -0.18069,3.61811 -0.55431,0.79138 -3.92236,3.40036 -4.38969,3.40036 -0.15146,0 -1.12652,-1.19696 -2.16678,-2.6599 z m 151.12691,2.31919 1.2132,-0.33698 -0.42416,-1.41116 -0.42415,-1.41116 -1.71356,0.0941 c -4.37865,0.24037 -7.69787,-2.40195 -7.69787,-6.12803 0,-3.97194 3.10505,-7.4366 6.68455,-7.45873 1.82446,-0.0113 4.36866,1.41967 5.32847,2.99691 1.60887,2.64382 1.36057,2.49617 3.08831,1.83634 l 1.54041,-0.58829 -0.50175,-1.20947 c -1.11146,-2.67914 -4.19008,-5.2448 -7.30666,-6.08923 -1.86141,-0.50434 -5.08345,-0.17963 -6.77363,0.68263 -4.17618,2.13053 -6.62496,7.48525 -5.43449,11.88352 1.36945,5.05953 7.40999,8.53153 12.42133,7.13957 z M 506.41222,792.164 c 3.8558,-1.92432 5.72644,-4.9087 5.74407,-9.16395 0.009,-2.0777 -0.14765,-2.82177 -0.92503,-4.40482 -1.89043,-3.84967 -5.32602,-5.8074 -9.69096,-5.52229 -7.27868,0.47544 -11.7052,7.63014 -8.73796,14.12341 1.3569,2.96935 3.4224,4.81838 6.53097,5.84654 1.54947,0.51249 5.19883,0.0594 7.07891,-0.87889 z m -6.19982,-2.65222 c -3.23545,-1.15341 -5.37262,-5.08482 -4.51572,-8.30687 1.37357,-5.16485 7.78336,-6.53643 11.1964,-2.39582 3.2824,3.98211 1.71731,9.51814 -3.05977,10.82303 -1.67525,0.45761 -2.03305,0.44571 -3.62091,-0.12034 z m 101.22256,-1.4284 c 0.10175,-0.50417 0.27507,-1.14925 0.38515,-1.43352 0.16193,-0.41813 -0.81461,-0.82442 -5.11238,-2.12702 l -5.31254,-1.61016 0.49861,-1.67901 c 0.27423,-0.92346 0.62658,-2.0156 0.78299,-2.42698 l 0.28437,-0.74797 4.10274,1.29963 c 2.25651,0.7148 4.3415,1.3016 4.63331,1.304 0.33393,0.003 0.68223,-0.50183 0.93977,-1.36142 0.22506,-0.75118 0.3613,-1.40903 0.30276,-1.46189 -0.0585,-0.0528 -1.98143,-0.65759 -4.2731,-1.34385 -2.29167,-0.68627 -4.30437,-1.37362 -4.47267,-1.52746 -0.29351,-0.26827 0.69141,-4.19934 1.1136,-4.44467 0.10582,-0.0615 2.2924,0.53736 4.85907,1.33077 2.56667,0.79341 4.89818,1.45089 5.18114,1.46106 0.32987,0.0119 0.64986,-0.48876 0.89181,-1.39525 0.20754,-0.77755 0.35103,-1.43454 0.31887,-1.45996 -0.30096,-0.23787 -13.64919,-4.14671 -13.76501,-4.03089 -0.17058,0.17059 -5.77625,18.36878 -5.68442,18.45384 0.23,0.21303 12.87488,4.05735 13.43261,4.08381 0.51789,0.0246 0.75807,-0.21285 0.89332,-0.88306 z m -71.03309,-3.92867 c 3.24604,-0.69505 6.06432,-1.36411 6.26285,-1.48681 0.58212,-0.35977 0.0317,-3.00235 -0.62401,-2.9957 -0.29741,0.003 -2.55509,0.45117 -5.01708,0.99588 -2.46199,0.54471 -4.50423,0.95474 -4.5383,0.91118 -0.0341,-0.0436 -0.61941,-2.62921 -1.30074,-5.74588 -0.68133,-3.11667 -1.4584,-6.65624 -1.72683,-7.86571 l -0.48804,-2.19905 -1.65154,0.32655 c -1.02261,0.2022 -1.65154,0.50143 -1.65154,0.78577 0,0.39438 3.27597,15.61303 3.87239,17.98939 0.11543,0.45988 0.37886,0.77134 0.58541,0.69212 0.20654,-0.0792 3.03139,-0.7127 6.27743,-1.40774 z m 42.68591,-2.90466 c 0.0963,-0.59584 0.52597,-4.20761 0.95489,-8.02616 l 0.77984,-6.94283 1.33873,0.17537 c 0.7363,0.0965 2.10748,0.26973 3.04705,0.38505 l 1.70833,0.20966 0.23335,-1.5561 c 0.12834,-0.85585 0.18358,-1.60586 0.12275,-1.66669 -0.2449,-0.2449 -15.02225,-1.86784 -15.46394,-1.69835 -0.31267,0.11998 -0.47547,0.68776 -0.47547,1.65822 v 1.47577 l 2.61196,0.23121 c 1.43658,0.12717 2.7664,0.33028 2.95517,0.45136 0.29596,0.18985 -0.57124,9.47473 -1.38047,14.78027 -0.20353,1.33442 -0.0178,1.45765 2.35306,1.56116 0.92743,0.0405 1.05862,-0.0716 1.21475,-1.03794 z m -22.35709,-3.75 -0.10261,-4 3.35261,-5.77691 c 1.84394,-3.1773 3.35262,-5.8398 3.35262,-5.91667 0,-0.0769 -0.8625,-0.13863 -1.91667,-0.13724 l -1.91667,0.003 -2.2807,4.16346 c -1.25438,2.2899 -2.4013,4.23799 -2.5487,4.32909 -0.1474,0.0911 -1.56858,-1.63359 -3.15817,-3.83264 -3.07608,-4.25545 -3.00091,-4.20548 -5.60938,-3.72906 l -1.26362,0.23079 4.14164,5.60445 4.14164,5.60444 0.23921,3.82847 0.23921,3.82846 1.71611,-0.0996 1.7161,-0.0996 z m 952.20331,-98.58334 -0.1007,-1.75 -606.25001,-0.0834 -606.24997,-0.0834 v 1.83342 1.83343 H 896.68405 1503.0348 Z M 504.33331,544.6667 v -36.33334 h -68.33333 -68.33333 v -20 -20 h 55.33333 55.33333 v -35 -35 h -55.33333 -55.33333 v -17.66667 -17.66667 h 68.33333 68.33333 v -36.33333 -36.33334 h -106.99999 -107 v 145.33334 145.33335 h 107 106.99999 z m 103,-68.647 c 0,-76.66523 0.1,-105.04211 0.3706,-105.20938 0.20383,-0.12597 0.46825,-0.071 0.58761,0.12209 0.11936,0.19313 17.45323,47.53735 38.51971,105.20938 l 38.30269,104.85825 h 58.44302 58.44302 V 435.66669 290.33335 h -38.49999 -38.5 v 101.66667 c 0,86.99573 -0.0675,101.66668 -0.46739,101.66668 -0.25707,0 -0.64101,-0.4875 -0.8532,-1.08334 -0.21219,-0.59583 -15.84374,-45.70833 -34.73678,-100.25 -18.89303,-54.54167 -34.57319,-99.80418 -34.8448,-100.58334 l -0.49383,-1.41667 h -61.63533 -61.63533 v 145.33334 145.33335 h 38.5 38.5 z m 370.33331,104.63987 c 8.35059,-0.62879 16.16833,-2.20822 23.18038,-4.68318 29.7117,-10.4869 50.3598,-37.53798 54.1764,-70.97636 0.5121,-4.48645 0.5143,-15.1508 0,-19.66667 -1.8095,-16.01539 -8.0118,-31.06359 -17.7916,-43.16667 -2.9556,-3.65774 -9.7369,-10.1734 -13.6143,-13.08094 -6.1801,-4.63428 -13.2978,-8.5709 -21.1394,-11.69172 -1.8235,-0.72573 -24.84048,-7.95045 -51.14881,-16.05493 -26.30833,-8.10449 -48.47403,-15.10445 -49.2571,-15.55547 -2.15009,-1.23837 -3.71653,-2.98574 -4.85225,-5.41273 -0.88413,-1.88934 -1.02166,-2.55348 -1.00702,-4.86287 0.0352,-5.54563 2.96252,-9.86141 7.94971,-11.72016 1.59858,-0.59581 3.9984,-0.62478 58.74999,-0.70918 L 1020,362.99069 v -36.34458 -36.34457 l -60.08338,0.12562 c -53.31556,0.11148 -60.53389,0.18706 -64.08333,0.67101 -11.19249,1.52606 -19.69818,4.10261 -28.76735,8.7142 -24.14923,12.27968 -40.32813,35.85443 -44.62266,65.02099 -0.80262,5.45105 -0.80637,19.38508 -0.007,24.60173 1.41953,9.25928 3.92611,17.60595 7.52724,25.06494 4.29008,8.886 8.79656,15.27238 15.52968,22.00797 8.8556,8.85884 19.06828,15.33933 31.33971,19.88671 1.46667,0.5435 22.60574,7.13797 46.97572,14.65439 24.36998,7.51642 45.01112,14.02198 45.8692,14.4568 2.07356,1.05076 4.44622,3.74858 5.35912,6.09359 0.53881,1.38407 0.7353,2.57992 0.72304,4.40054 -0.0379,5.62667 -3.21794,10.08497 -8.31684,11.65986 -2.15789,0.6665 -2.89088,0.67347 -70.81202,0.67347 h -68.63155 v 36.33334 36.33334 l 72.58333,-8.1e-4 c 45.99445,-5.2e-4 74.23178,-0.12494 77.08333,-0.33966 z M 1201.3333,472.00003 V 363.00002 h 40.3333 40.3333 v -36.33333 -36.33334 h -119.3333 -119.3333 v 36.33334 36.33333 h 40.3333 40.3333 v 109.00001 109.00001 h 38.6667 38.6667 z m 301.3333,72.67027 v -36.32974 l -74.75,-0.0869 -74.75,-0.0869 -1.8485,-0.86704 c -1.0167,-0.47687 -2.3913,-1.34352 -3.0545,-1.92588 -2.4279,-2.13172 -4.2637,-6.10682 -4.2637,-9.23247 0,-2.1546 1.1794,-5.46082 2.5779,-7.22645 0.6905,-0.87184 19.4055,-18.23764 41.5888,-38.59066 l 40.3333,-37.0055 0.085,36.50733 0.085,36.50733 h 36.9986 36.9985 v -63.98293 c 0,-55.65816 -0.067,-64.49175 -0.5127,-67.89367 -2.7767,-21.18203 -14.4196,-39.97488 -31.9873,-51.63082 -7.1672,-4.75534 -14.227,-7.92094 -22.2517,-9.97764 -9.5544,-2.44876 -4.7189,-2.29712 -77.3316,-2.42511 l -65.25,-0.115 v 36.34591 36.34592 h 38.3611 c 22.8206,0 38.3161,0.12252 38.25,0.30244 -0.061,0.16633 -18.1861,15.69989 -40.2778,34.51902 -22.0917,18.81912 -41.8512,35.79114 -43.9101,37.71559 -11.492,10.74153 -20.0952,25.30339 -23.709,40.12963 -1.8566,7.61716 -2.2163,10.95089 -2.1942,20.33333 0.015,6.2646 0.1664,9.40175 0.5764,11.92884 1.3952,8.59894 3.5504,16.00123 6.7304,23.11651 12.7515,28.53149 38.7491,47.07489 69.5065,49.57715 1.925,0.15661 37.3625,0.30561 78.75,0.33112 l 75.25,0.0464 z"
         id="path4" />
      <path
         style="fill:#3645fe"
         d="m 557.08965,1052.1024 c 0.32432,-0.084 0.77432,-0.079 1,0.012 0.22568,0.091 -0.0397,0.1604 -0.58968,0.1536 -0.55,-0.01 -0.73464,-0.082 -0.41032,-0.166 z m -6.83967,-0.3231 c 0.22916,-0.092 0.60416,-0.092 0.83333,0 0.22916,0.092 0.0417,0.1681 -0.41667,0.1681 -0.45833,0 -0.64583,-0.076 -0.41666,-0.1681 z m -6.82699,-0.3436 c 0.32432,-0.084 0.77432,-0.079 1,0.012 0.22567,0.091 -0.0397,0.1604 -0.58968,0.1536 -0.55,-0.01 -0.73465,-0.082 -0.41032,-0.166 z m -2.0247,-4.6023 c 0.007,-0.55 0.0815,-0.7346 0.16602,-0.4103 0.0845,0.3243 0.079,0.7743 -0.0124,1 -0.0913,0.2257 -0.16045,-0.04 -0.15366,-0.5897 z m 15.69136,-0.3977 c 0.32432,-0.084 0.77432,-0.079 1,0.012 0.22568,0.091 -0.0397,0.1604 -0.58968,0.1536 -0.55,-0.01 -0.73464,-0.082 -0.41032,-0.166 z m -6.66666,-0.3333 c 0.32432,-0.084 0.77432,-0.079 1,0.012 0.22567,0.091 -0.0397,0.1604 -0.58968,0.1536 -0.55,-0.01 -0.73465,-0.082 -0.41032,-0.166 z m 2.33333,-2 c 0.32432,-0.084 0.77432,-0.079 1,0.012 0.22568,0.091 -0.0397,0.1604 -0.58968,0.1536 -0.55,-0.01 -0.73464,-0.082 -0.41032,-0.166 z m 5.64197,-3.269 c 0.007,-0.55 0.0815,-0.7346 0.16601,-0.4103 0.0845,0.3243 0.079,0.7743 -0.0123,1 -0.0913,0.2257 -0.16045,-0.04 -0.15366,-0.5897 z m -39.30864,-0.3977 c 0.32433,-0.084 0.77433,-0.079 1,0.012 0.22568,0.091 -0.0397,0.1604 -0.58967,0.1536 -0.55,-0.01 -0.73465,-0.082 -0.41033,-0.166 z m 22.64197,-0.6023 c 0.007,-0.55 0.0815,-0.7346 0.16602,-0.4103 0.0845,0.3243 0.079,0.7743 -0.0123,1 -0.0913,0.2257 -0.16046,-0.04 -0.15367,-0.5897 z m 11.18502,-0.7208 c 0.22917,-0.092 0.60417,-0.092 0.83333,0 0.22917,0.092 0.0417,0.1682 -0.41666,0.1682 -0.45834,0 -0.64584,-0.076 -0.41667,-0.1682 z m -0.49365,-2.0102 c 0.32432,-0.084 0.77432,-0.079 1,0.012 0.22567,0.091 -0.0397,0.1604 -0.58968,0.1536 -0.55,-0.01 -0.73465,-0.082 -0.41032,-0.166 z m 6.9753,-1.6023 c 0.007,-0.55 0.0815,-0.7347 0.16601,-0.4104 0.0845,0.3244 0.079,0.7744 -0.0123,1 -0.0913,0.2257 -0.16045,-0.04 -0.15366,-0.5896 z m -17.33333,-2.3334 c 0.007,-0.55 0.0815,-0.7346 0.16601,-0.4103 0.0845,0.3243 0.079,0.7743 -0.0123,1 -0.0913,0.2257 -0.16045,-0.04 -0.15366,-0.5897 z m 10.35803,-1.731 c 0.32432,-0.084 0.77432,-0.079 1,0.012 0.22567,0.091 -0.0397,0.1604 -0.58968,0.1536 -0.55,-0.01 -0.73465,-0.082 -0.41032,-0.166 z m -6.66667,-0.3333 c 0.32432,-0.084 0.77432,-0.079 1,0.012 0.22568,0.091 -0.0397,0.1604 -0.58968,0.1536 -0.55,-0.01 -0.73464,-0.082 -0.41032,-0.166 z m 9.67038,-19.6811 c 0.87636,-0.069 2.22636,-0.068 3,0 0.77363,0.07 0.0566,0.1262 -1.59339,0.1252 -1.65,0 -2.28298,-0.058 -1.40661,-0.1271 z m -7.15589,-0.3156 c 0.24062,-0.096 0.52812,-0.084 0.63889,0.026 0.11076,0.1108 -0.0861,0.1896 -0.4375,0.1751 -0.38832,-0.016 -0.4673,-0.095 -0.20139,-0.2014 z m 16.66666,0 c 0.24063,-0.096 0.52813,-0.084 0.63889,0.026 0.11077,0.1108 -0.0861,0.1896 -0.4375,0.1751 -0.38831,-0.016 -0.4673,-0.095 -0.20139,-0.2014 z m 91.13983,-10.1056 c 0,-0.6417 0.0686,-0.9042 0.15245,-0.5834 0.0838,0.3209 0.0838,0.8459 0,1.1667 -0.0838,0.3208 -0.15245,0.058 -0.15245,-0.5833 z M 446.35963,984.47228 c 0.016,-0.38831 0.095,-0.4673 0.20139,-0.20139 0.0963,0.24063 0.0845,0.52813 -0.0263,0.63889 -0.11076,0.11077 -0.18954,-0.0861 -0.17507,-0.4375 z m 4.39108,-2.63889 c 0.004,-0.73333 0.072,-0.99408 0.15169,-0.57944 0.0797,0.41463 0.0767,1.01463 -0.007,1.33333 -0.0834,0.3187 -0.14866,-0.0205 -0.14496,-0.75389 z m -13.68575,-1 c 0.007,-0.55 0.0815,-0.73464 0.16602,-0.41032 0.0845,0.32432 0.079,0.77432 -0.0123,1 -0.0913,0.22568 -0.16046,-0.0397 -0.15367,-0.58968 z m -3.372,-0.0278 c 0.016,-0.38832 0.095,-0.4673 0.20139,-0.20139 0.0963,0.24062 0.0845,0.52812 -0.0263,0.63889 -0.11077,0.11076 -0.18955,-0.0861 -0.17508,-0.4375 z m 12.91119,-5.69993 c 0.24062,-0.0963 0.52812,-0.0844 0.63889,0.0263 0.11076,0.11077 -0.0861,0.18955 -0.4375,0.17508 -0.38832,-0.016 -0.4673,-0.095 -0.20139,-0.20139 z m 242.75547,-10.30008 c 0.016,-0.38831 0.095,-0.4673 0.20139,-0.20138 0.0963,0.24062 0.0844,0.52812 -0.0263,0.63888 -0.11076,0.11077 -0.18955,-0.0861 -0.17507,-0.4375 z m 653.91118,-12.36659 c 0.2406,-0.0963 0.5281,-0.0845 0.6389,0.0263 0.1107,0.11076 -0.086,0.18954 -0.4375,0.17507 -0.3884,-0.016 -0.4673,-0.095 -0.2014,-0.20139 z m 10,0 c 0.2406,-0.0963 0.5281,-0.0845 0.6389,0.0263 0.1107,0.11076 -0.086,0.18954 -0.4375,0.17507 -0.3884,-0.016 -0.4673,-0.095 -0.2014,-0.20139 z m -593.43931,-45.93897 0.002,-44.66666 9.75012,-0.008 9.75012,-0.008 -9.66558,0.096 -9.66558,0.096 -0.0864,44.5783 -0.0863,44.5783 z m 57.66666,0 0.002,-44.66666 19.83334,-0.004 19.83333,-0.004 -19.74879,0.09 -19.7488,0.09 -0.0864,44.58069 -0.0863,44.58069 z m 135,0 0.002,-44.66666 19.83333,-0.004 19.83333,-0.004 -19.74879,0.09 -19.74879,0.09 -0.0864,44.58069 -0.0864,44.58069 z m 220.98795,30.66667 c 10e-5,-7.88333 0.044,-11.06068 0.097,-7.06078 0.053,3.9999 0.053,10.4499 -10e-5,14.33333 -0.053,3.88344 -0.097,0.61079 -0.097,-7.27255 z m -559.90279,7.58927 c 0.77916,-0.0702 2.05416,-0.0702 2.83333,0 0.77917,0.0702 0.14167,0.1276 -1.41667,0.1276 -1.55833,0 -2.19583,-0.0574 -1.41666,-0.1276 z m 732.99999,-9.64336 c 0.2291,-0.0925 0.6041,-0.0925 0.8333,0 0.2292,0.0925 0.042,0.16813 -0.4167,0.16813 -0.4583,0 -0.6458,-0.0757 -0.4166,-0.16813 z m 4.0208,-0.007 c 0.2406,-0.0963 0.5281,-0.0844 0.6389,0.0263 0.1108,0.11077 -0.086,0.18955 -0.4375,0.17507 -0.3883,-0.016 -0.4673,-0.095 -0.2014,-0.20138 z m 30.7818,-8.10563 c 0,-0.45834 0.076,-0.64584 0.1681,-0.41667 0.092,0.22917 0.092,0.60417 0,0.83333 -0.092,0.22917 -0.1681,0.0417 -0.1681,-0.41666 z m -764.11509,0.10562 c 0.24062,-0.0963 0.52812,-0.0844 0.63888,0.0263 0.11077,0.11076 -0.0861,0.18955 -0.4375,0.17507 -0.38831,-0.016 -0.4673,-0.095 -0.20138,-0.20139 z m 81.66666,-1.66666 c 0.24062,-0.0963 0.52812,-0.0845 0.63889,0.0263 0.11076,0.11077 -0.0861,0.18955 -0.4375,0.17508 -0.38832,-0.016 -0.4673,-0.095 -0.20139,-0.20139 z m 155.64582,-0.99306 c 0.22917,-0.0925 0.60417,-0.0925 0.83334,0 0.22916,0.0925 0.0417,0.16813 -0.41667,0.16813 -0.45833,0 -0.64583,-0.0757 -0.41667,-0.16813 z m 134.83968,-0.0102 c 0.32432,-0.0845 0.77432,-0.079 1,0.0123 0.22567,0.0913 -0.0397,0.16045 -0.58968,0.15366 -0.55,-0.007 -0.73465,-0.0815 -0.41032,-0.16601 z m -288.73002,-0.96345 c 0.016,-0.38832 0.095,-0.4673 0.20139,-0.20139 0.0963,0.24062 0.0844,0.52812 -0.0263,0.63889 -0.11076,0.11076 -0.18954,-0.0861 -0.17507,-0.4375 z m 680.69295,-0.80556 c 0,-0.45833 0.076,-0.64583 0.1681,-0.41666 0.092,0.22916 0.092,0.60416 0,0.83333 -0.092,0.22917 -0.1681,0.0417 -0.1681,-0.41667 z m -697.02628,-0.19444 c 0.016,-0.38832 0.095,-0.4673 0.20139,-0.20139 0.0963,0.24062 0.0844,0.52812 -0.0263,0.63889 -0.11076,0.11076 -0.18955,-0.0861 -0.17507,-0.4375 z m 8.33333,-0.66667 c 0.016,-0.38831 0.095,-0.4673 0.20139,-0.20139 0.0963,0.24063 0.0844,0.52813 -0.0263,0.63889 -0.11076,0.11077 -0.18954,-0.0861 -0.17507,-0.4375 z m 5,-0.33333 c 0.016,-0.38832 0.095,-0.4673 0.20139,-0.20139 0.0963,0.24062 0.0844,0.52812 -0.0263,0.63889 -0.11076,0.11076 -0.18954,-0.0861 -0.17507,-0.4375 z m -16.33333,-1 c 0.016,-0.38832 0.095,-0.4673 0.20139,-0.20139 0.0963,0.24062 0.0844,0.52812 -0.0263,0.63889 -0.11076,0.11076 -0.18955,-0.0861 -0.17507,-0.4375 z m 8.33333,-0.66667 c 0.016,-0.38831 0.095,-0.4673 0.20139,-0.20139 0.0963,0.24063 0.0844,0.52813 -0.0263,0.63889 -0.11076,0.11077 -0.18954,-0.0861 -0.17507,-0.4375 z m 11.33333,-0.66667 c 0.016,-0.38831 0.095,-0.4673 0.20139,-0.20138 0.0963,0.24062 0.0845,0.52812 -0.0263,0.63888 -0.11077,0.11077 -0.18955,-0.0861 -0.17508,-0.4375 z m -16.33333,-1 c 0.016,-0.38831 0.095,-0.4673 0.20139,-0.20138 0.0963,0.24062 0.0844,0.52812 -0.0263,0.63888 -0.11076,0.11077 -0.18954,-0.0861 -0.17507,-0.4375 z m 8.33333,-0.66666 c 0.016,-0.38832 0.095,-0.4673 0.20139,-0.20139 0.0963,0.24062 0.0845,0.52812 -0.0263,0.63889 -0.11077,0.11076 -0.18955,-0.0861 -0.17508,-0.4375 z m 5,-0.33334 c 0.016,-0.38831 0.095,-0.4673 0.20139,-0.20138 0.0963,0.24062 0.0845,0.52812 -0.0263,0.63888 -0.11077,0.11077 -0.18955,-0.0861 -0.17508,-0.4375 z m -16.33333,-1 c 0.016,-0.38831 0.095,-0.4673 0.20139,-0.20138 0.0963,0.24062 0.0844,0.52812 -0.0263,0.63888 -0.11076,0.11077 -0.18954,-0.0861 -0.17507,-0.4375 z m -20.66666,-0.33333 c 0.016,-0.38831 0.095,-0.4673 0.20138,-0.20139 0.0963,0.24063 0.0845,0.52813 -0.0263,0.63889 -0.11076,0.11076 -0.18955,-0.0861 -0.17507,-0.4375 z m 28.99999,-0.33333 c 0.016,-0.38832 0.095,-0.4673 0.20139,-0.20139 0.0963,0.24062 0.0845,0.52812 -0.0263,0.63889 -0.11077,0.11076 -0.18955,-0.0861 -0.17508,-0.4375 z m 11.33334,-0.66667 c 0.016,-0.38831 0.095,-0.4673 0.20139,-0.20139 0.0963,0.24063 0.0844,0.52813 -0.0263,0.63889 -0.11076,0.11076 -0.18955,-0.0861 -0.17507,-0.4375 z m -6.75548,-0.69993 c 0.24062,-0.0963 0.52812,-0.0844 0.63888,0.0263 0.11077,0.11076 -0.0861,0.18955 -0.4375,0.17507 -0.38831,-0.016 -0.4673,-0.095 -0.20138,-0.20139 z m 380.81246,-0.35512 c 3.2542,-0.0546 8.5792,-0.0546 11.8334,0 3.2541,0.0546 0.5916,0.0992 -5.9167,0.0992 -6.5083,0 -9.1708,-0.0446 -5.9167,-0.0992 z M 452.05261,913 c 0,-0.45834 0.0757,-0.64584 0.16813,-0.41667 0.0925,0.22917 0.0925,0.60417 0,0.83333 -0.0925,0.22917 -0.16813,0.0417 -0.16813,-0.41666 z m 233.88486,0.43896 c 0.24062,-0.0963 0.52812,-0.0845 0.63889,0.0263 0.11076,0.11077 -0.0861,0.18955 -0.4375,0.17508 -0.38832,-0.016 -0.4673,-0.095 -0.20139,-0.20139 z m -3.91119,-1.63341 c 0.016,-0.38831 0.095,-0.4673 0.20139,-0.20139 0.0963,0.24063 0.0845,0.52813 -0.0263,0.63889 -0.11077,0.11076 -0.18955,-0.0861 -0.17508,-0.4375 z m 14.91119,-1.03326 c 0.24062,-0.0963 0.52812,-0.0844 0.63889,0.0263 0.11076,0.11076 -0.0861,0.18954 -0.4375,0.17507 -0.38832,-0.016 -0.4673,-0.095 -0.20139,-0.20139 z m -4.33333,-0.33333 c 0.24062,-0.0963 0.52812,-0.0845 0.63888,0.0263 0.11077,0.11077 -0.0861,0.18955 -0.4375,0.17508 -0.38831,-0.016 -0.4673,-0.095 -0.20138,-0.20139 z m -4.33334,-0.33334 c 0.24063,-0.0963 0.52813,-0.0844 0.63889,0.0263 0.11076,0.11076 -0.0861,0.18955 -0.4375,0.17507 -0.38831,-0.016 -0.4673,-0.095 -0.20139,-0.20139 z m -4.33333,-0.33333 c 0.24062,-0.0963 0.52812,-0.0844 0.63889,0.0263 0.11076,0.11076 -0.0861,0.18954 -0.4375,0.17507 -0.38832,-0.016 -0.4673,-0.095 -0.20139,-0.20139 z m -263.99999,-3.66667 c 0.24063,-0.0963 0.52813,-0.0844 0.63889,0.0263 0.11076,0.11076 -0.0861,0.18955 -0.4375,0.17507 -0.38831,-0.016 -0.4673,-0.095 -0.20139,-0.20139 z m -5.35417,-0.32639 c 0.22917,-0.0925 0.60417,-0.0925 0.83334,0 0.22916,0.0925 0.0417,0.16813 -0.41667,0.16813 -0.45833,0 -0.64583,-0.0756 -0.41667,-0.16813 z m 758.90149,-13.27924 c 10e-5,-7.15 0.044,-10.02756 0.098,-6.39459 0.054,3.63297 0.054,9.48297 -10e-5,13 -0.054,3.51703 -0.098,0.54459 -0.098,-6.60541 z m -761.73257,10.16667 c 0.075,-0.275 0.4239,-0.53485 0.77537,-0.57745 0.44902,-0.0544 0.49036,-0.0148 0.13905,0.13331 -0.275,0.11592 -0.62392,0.37578 -0.77538,0.57746 -0.17712,0.23584 -0.22673,0.18827 -0.13904,-0.13332 z m 10.83108,0.0981 c 0.4125,-0.0795 1.0875,-0.0795 1.5,0 0.4125,0.0794 0.075,0.14446 -0.75,0.14446 -0.825,0 -1.1625,-0.065 -0.75,-0.14446 z m -5.33333,-0.31885 c 0.22917,-0.0925 0.60417,-0.0925 0.83333,0 0.22917,0.0925 0.0417,0.16813 -0.41666,0.16813 -0.45834,0 -0.64584,-0.0757 -0.41667,-0.16813 z m 34.80263,-2.11257 c 0,-0.45834 0.0757,-0.64584 0.16813,-0.41667 0.0925,0.22917 0.0925,0.60417 0,0.83333 -0.0925,0.22917 -0.16813,0.0417 -0.16813,-0.41666 z m 236.19736,-0.90191 c 0.4125,-0.0794 1.0875,-0.0794 1.5,0 0.4125,0.0795 0.075,0.14445 -0.75,0.14445 -0.825,0 -1.1625,-0.065 -0.75,-0.14445 z m -43.19737,-0.76476 c 0,-0.45833 0.0757,-0.64583 0.16813,-0.41667 0.0925,0.22917 0.0925,0.60417 0,0.83334 -0.0925,0.22916 -0.16813,0.0417 -0.16813,-0.41667 z m -192.69297,-2.52778 c 0.016,-0.38831 0.095,-0.4673 0.20139,-0.20139 0.0963,0.24063 0.0845,0.52813 -0.0263,0.63889 -0.11076,0.11077 -0.18955,-0.0861 -0.17507,-0.4375 z m 192.66666,-1.66666 c 0.016,-0.38832 0.095,-0.4673 0.20139,-0.20139 0.0963,0.24062 0.0844,0.52812 -0.0263,0.63889 -0.11076,0.11076 -0.18955,-0.0861 -0.17507,-0.4375 z M 888.41063,893 c 0,-0.64166 0.0686,-0.90416 0.15244,-0.58333 0.0838,0.32083 0.0838,0.84583 0,1.16667 -0.0838,0.32083 -0.15244,0.0583 -0.15244,-0.58334 z m 340.03687,-1.5 c 0,-1.46666 0.06,-2.0252 0.1303,-1.24119 0.07,0.78402 0.069,1.98402 0,2.66667 -0.072,0.68266 -0.1293,0.0412 -0.1281,-1.42548 z m -20.0302,1 c 0,-0.73333 0.072,-0.99408 0.1517,-0.57944 0.08,0.41463 0.077,1.01463 -0.01,1.33333 -0.083,0.3187 -0.1487,-0.0205 -0.145,-0.75389 z m -785.14649,0.60563 c 0.24063,-0.0963 0.52813,-0.0845 0.63889,0.0263 0.11077,0.11076 -0.0861,0.18955 -0.4375,0.17507 -0.38831,-0.016 -0.4673,-0.095 -0.20139,-0.20139 z m -5.35416,-0.32639 c 0.22916,-0.0925 0.60416,-0.0925 0.83333,0 0.22917,0.0925 0.0417,0.16813 -0.41667,0.16813 -0.45833,0 -0.64583,-0.0757 -0.41666,-0.16813 z m -5.36111,-0.33479 c -0.12223,-0.12222 -0.21993,-0.38472 -0.21712,-0.58333 0.003,-0.24439 0.0843,-0.23889 0.25,0.017 0.13469,0.20796 0.54489,0.45306 0.91156,0.54467 0.64484,0.1611 0.64393,0.16782 -0.0278,0.20522 -0.38194,0.0213 -0.79444,-0.0613 -0.91666,-0.18355 z m 271.47074,-1.30556 c 0.016,-0.38831 0.095,-0.4673 0.20139,-0.20139 0.0963,0.24063 0.0845,0.52813 -0.0263,0.63889 -0.11077,0.11077 -0.18955,-0.0861 -0.17508,-0.4375 z m -263.0888,-1.69992 c 0.24063,-0.0963 0.52813,-0.0845 0.63889,0.0263 0.11076,0.11077 -0.0861,0.18955 -0.4375,0.17507 -0.38831,-0.016 -0.4673,-0.095 -0.20139,-0.20138 z m -5.35417,-0.32639 c 0.22917,-0.0925 0.60417,-0.0925 0.83334,0 0.22916,0.0925 0.0417,0.16813 -0.41667,0.16813 -0.45833,0 -0.64583,-0.0757 -0.41667,-0.16813 z M 674.41736,862.5 c 0.004,-0.73333 0.072,-0.99408 0.1517,-0.57944 0.0797,0.41463 0.0767,1.01463 -0.007,1.33333 -0.0834,0.31869 -0.14867,-0.0205 -0.14497,-0.75389 z m 490.33254,-0.74984 c 6.0042,-0.0509 15.8292,-0.0509 21.8334,0 6.0041,0.0509 1.0916,0.0926 -10.9167,0.0926 -12.0083,0 -16.9208,-0.0417 -10.9167,-0.0926 z m 102.1873,4e-4 c 2.8072,-0.0558 7.3072,-0.0557 10,2.7e-4 2.6928,0.056 0.3961,0.10163 -5.1039,0.10148 -5.5,-1.4e-4 -7.7033,-0.0459 -4.8961,-0.10175 z m -189.8539,-0.66641 c 2.5208,-0.0566 6.6458,-0.0566 9.1667,0 2.5208,0.0566 0.4583,0.10296 -4.5834,0.10296 -5.0416,0 -7.1041,-0.0463 -4.5833,-0.10296 z m 268,-0.64726 c 0.3208,-0.0838 0.8458,-0.0838 1.1666,0 0.3209,0.0838 0.058,0.15244 -0.5833,0.15244 -0.6417,0 -0.9042,-0.0686 -0.5833,-0.15244 z M 444.08966,844.43572 c 0.32432,-0.0845 0.77432,-0.079 1,0.0124 0.22567,0.0913 -0.0397,0.16046 -0.58968,0.15366 -0.55,-0.007 -0.73465,-0.0815 -0.41032,-0.16601 z m 105.18115,-42.33004 c 0.24062,-0.0963 0.52812,-0.0845 0.63889,0.0263 0.11076,0.11077 -0.0861,0.18955 -0.4375,0.17508 -0.38832,-0.016 -0.4673,-0.095 -0.20139,-0.20139 z m 14.66666,0 c 0.24063,-0.0963 0.52813,-0.0845 0.63889,0.0263 0.11077,0.11077 -0.0861,0.18955 -0.4375,0.17508 -0.38831,-0.016 -0.4673,-0.095 -0.20139,-0.20139 z m -72.21819,-19.10563 c 0,-0.45834 0.0756,-0.64584 0.16812,-0.41667 0.0925,0.22917 0.0925,0.60417 0,0.83333 -0.0925,0.22917 -0.16812,0.0417 -0.16812,-0.41666 z m 58.2182,-1.56104 c 0.24062,-0.0963 0.52812,-0.0845 0.63888,0.0263 0.11077,0.11076 -0.0861,0.18954 -0.4375,0.17507 -0.38831,-0.016 -0.4673,-0.095 -0.20138,-0.20139 z m 0.78179,-1.7723 c 0,-0.45833 0.0757,-0.64583 0.16813,-0.41666 0.0925,0.22916 0.0925,0.60416 0,0.83333 -0.0925,0.22917 -0.16813,0.0417 -0.16813,-0.41667 z m -3.66666,-2.33333 c 0,-0.45833 0.0756,-0.64583 0.16813,-0.41667 0.0925,0.22917 0.0925,0.60417 0,0.83334 -0.0925,0.22916 -0.16813,0.0417 -0.16813,-0.41667 z m 3.30701,-3.19444 c 0.016,-0.38832 0.095,-0.4673 0.20139,-0.20139 0.0963,0.24062 0.0844,0.52812 -0.0263,0.63889 -0.11077,0.11076 -0.18955,-0.0861 -0.17508,-0.4375 z m -9.44298,-11.69299 c 0.22917,-0.0925 0.60417,-0.0925 0.83334,0 0.22916,0.0925 0.0417,0.16813 -0.41667,0.16813 -0.45833,0 -0.64583,-0.0757 -0.41667,-0.16813 z m 961.84986,-83.44591 c 0,-1.00833 0.062,-1.42083 0.1388,-0.91667 0.076,0.50417 0.076,1.32917 0,1.83334 -0.076,0.50416 -0.1388,0.0917 -0.1388,-0.91667 z M 290.33332,435.66669 V 290.33335 h 107 106.99999 v 36.33334 36.33333 h -68.33333 -68.33333 v 17.66667 17.66667 h 55.33333 55.33333 v 35 35 h -55.33333 -55.33333 v 20 20 h 68.33333 68.33333 v 36.33334 36.33334 h -106.99999 -107 z m 239.99999,0 V 290.33335 h 61.63533 61.63533 l 0.49383,1.41667 c 0.27161,0.77916 15.95177,46.04167 34.8448,100.58334 18.89304,54.54167 34.52459,99.65417 34.73678,100.25 0.21219,0.59584 0.59613,1.08334 0.8532,1.08334 0.39994,0 0.46739,-14.67095 0.46739,-101.66668 V 290.33335 h 38.5 38.49999 V 435.66669 581.00004 H 743.55694 685.11392 L 646.81123,476.14179 c -21.06648,-57.67203 -38.40035,-105.01625 -38.51971,-105.20938 -0.11936,-0.19312 -0.38378,-0.24806 -0.58761,-0.12209 -0.27065,0.16727 -0.3706,28.54415 -0.3706,105.20938 v 104.98034 h -38.5 -38.5 z M 827.99996,544.6667 v -36.33334 h 68.63155 c 67.92114,0 68.65413,-0.007 70.81202,-0.67347 5.0989,-1.57489 8.27895,-6.03319 8.31684,-11.65986 0.0123,-1.82062 -0.18423,-3.01647 -0.72304,-4.40054 -0.9129,-2.34501 -3.28556,-5.04283 -5.35912,-6.09359 -0.85808,-0.43482 -21.49922,-6.94038 -45.8692,-14.4568 -24.36998,-7.51642 -45.50905,-14.11089 -46.97572,-14.65439 -12.27143,-4.54738 -22.48411,-11.02787 -31.33971,-19.88671 -12.53945,-12.54404 -20.14333,-28.06809 -23.05692,-47.07291 -0.79975,-5.21665 -0.796,-19.15068 0.007,-24.60173 4.29453,-29.16656 20.47343,-52.74131 44.62266,-65.02099 9.06917,-4.61159 17.57486,-7.18814 28.76735,-8.7142 3.54944,-0.48395 10.76777,-0.55953 64.08333,-0.67101 L 1020,290.30154 v 36.34457 36.34458 l -57.08338,0.088 c -54.75159,0.0844 -57.15141,0.11337 -58.74999,0.70918 -4.98719,1.85875 -7.91456,6.17453 -7.94971,11.72016 -0.0146,2.30939 0.12289,2.97353 1.00702,4.86287 1.13572,2.42699 2.70216,4.17436 4.85225,5.41273 0.78307,0.45102 22.94877,7.45098 49.2571,15.55547 26.30833,8.10448 49.32531,15.3292 51.14881,16.05493 7.8416,3.12082 14.9593,7.05744 21.1394,11.69172 3.8774,2.90754 10.6587,9.4232 13.6143,13.08094 9.7798,12.10308 15.9821,27.15128 17.7916,43.16667 0.5103,4.51587 0.5081,15.18022 0,19.66667 -3.8166,33.43838 -24.4647,60.48946 -54.1764,70.97636 -7.01205,2.47496 -14.82979,4.05439 -23.18038,4.68318 -2.85155,0.21472 -31.08888,0.33914 -77.08333,0.33966 l -72.58333,8.1e-4 z M 1123.9999,472.00003 V 363.00002 h -40.3333 -40.3333 v -36.33333 -36.33334 h 119.3333 119.3333 v 36.33334 36.33333 h -40.3333 -40.3333 v 109.00001 109.00001 h -38.6667 -38.6667 z m 224.6667,108.6225 c -30.7574,-2.50226 -56.755,-21.04566 -69.5065,-49.57715 -3.18,-7.11528 -5.3352,-14.51757 -6.7304,-23.11651 -0.41,-2.52709 -0.5616,-5.66424 -0.5764,-11.92884 -0.022,-9.38244 0.3376,-12.71617 2.1942,-20.33333 3.6138,-14.82624 12.217,-29.3881 23.709,-40.12963 2.0589,-1.92445 21.8184,-18.89647 43.9101,-37.71559 22.0917,-18.81913 40.2167,-34.35269 40.2778,-34.51902 0.066,-0.17992 -15.4294,-0.30244 -38.25,-0.30244 h -38.3611 V 326.6541 290.30819 l 65.25,0.115 c 72.6127,0.12799 67.7772,-0.0236 77.3316,2.42511 28.8679,7.39872 50.3282,31.77487 54.239,61.60846 0.446,3.40192 0.5127,12.23551 0.5127,67.89367 v 63.98293 h -36.9985 -36.9986 l -0.085,-36.50733 -0.085,-36.50733 -40.3333,37.0055 c -22.1833,20.35302 -40.8983,37.71882 -41.5888,38.59066 -1.3985,1.76563 -2.5779,5.07185 -2.5779,7.22645 0,3.12565 1.8358,7.10075 4.2637,9.23247 0.6632,0.58236 2.0378,1.44901 3.0545,1.92588 l 1.8485,0.86704 74.75,0.0869 74.75,0.0869 v 36.32974 36.32974 l -75.25,-0.0464 c -41.3875,-0.0255 -76.825,-0.17451 -78.75,-0.33112 z"
         id="path3" />
      <path
         style="fill:#010101"
         d="m 550.03421,1051.7585 c -4.65616,-0.2267 -8.52526,-0.4717 -8.59799,-0.5444 -0.14807,-0.1481 0.82917,-19.9239 0.99264,-20.0874 0.19838,-0.1983 16.85559,0.7134 17.07694,0.9347 0.1223,0.1223 0.11419,1.3769 -0.018,2.7879 l -0.2404,2.5655 -5.29036,-0.2398 -5.29036,-0.2397 v 1.0324 c 0,1.0039 0.0437,1.0334 1.58334,1.0715 3.79439,0.094 8.24325,0.4811 8.16666,0.7109 -0.0458,0.1375 -0.0833,1.2361 -0.0833,2.4414 v 2.1914 l -5,-0.238 -5,-0.238 v 1.003 c 0,0.9 0.12829,1.0241 1.25,1.2095 0.6875,0.1137 2.3,0.2096 3.58333,0.2132 1.28333,0 3.12083,0.1012 4.08333,0.2168 l 1.75,0.2102 -0.0234,2.2036 c -0.0374,3.5147 0.75372,3.2674 -8.94234,2.7953 z m 38.21635,-13.3161 c -1.6022,-5.2567 -2.85069,-9.62 -2.77443,-9.6963 0.3933,-0.3933 9.94653,-3.1208 11.52384,-3.2901 4.75537,-0.5104 8.07311,2.3611 8.13867,7.0441 0.0509,3.6344 -2.34633,6.3191 -6.88867,7.7149 -1.05416,0.3239 -1.91552,0.7456 -1.91412,0.937 10e-4,0.1914 0.30026,1.3231 0.66412,2.5147 0.36387,1.1917 0.66272,2.256 0.66412,2.3651 0.002,0.1926 -5.58878,1.9683 -6.1975,1.9683 -0.16662,0 -1.61384,-4.301 -3.21603,-9.5577 z m 8.59271,-2.925 c 1.4552,-0.608 2.08588,-1.8427 1.54625,-3.0271 -0.62834,-1.379 -1.88405,-1.5571 -4.62332,-0.6554 -0.57563,0.1894 0.80054,4.1652 1.44175,4.1652 0.26405,0 0.99995,-0.2172 1.63532,-0.4827 z m -78.84329,10.9401 c -1.0232,-0.1928 -9.79477,-2.5144 -9.9325,-2.6289 -0.11514,-0.096 5.26995,-19.2578 5.47204,-19.4714 0.27989,-0.296 9.37013,2.4773 11.12712,3.3946 4.0428,2.1109 5.85586,5.052 5.59004,9.0682 -0.0927,1.4009 -0.46268,3.056 -0.91795,4.1065 -0.93486,2.1573 -3.37759,4.4464 -5.38814,5.0494 -1.59838,0.4794 -4.6511,0.7264 -5.95061,0.4816 z m 3.13093,-6.2962 c 2.05131,-0.9734 2.95198,-4.1342 1.71569,-6.0211 -0.56194,-0.8576 -2.85806,-2.1188 -3.88292,-2.1328 -0.40004,-0.01 -0.81477,0.9683 -1.63226,3.8326 -0.60278,2.112 -1.00656,3.9294 -0.89728,4.0387 0.23186,0.2318 2.12215,0.7045 3.01546,0.7539 0.33896,0.019 1.09555,-0.1933 1.68131,-0.4713 z m 97.05425,-1.9296 c -0.29442,-1.4206 -2.59036,-21.2707 -2.47194,-21.3718 0.98095,-0.8376 5.70618,-3.182 6.0288,-2.9912 0.55057,0.3256 16.28703,12.4145 16.86288,12.9543 0.35422,0.332 -0.14071,0.7399 -2.58071,2.1272 -1.66043,0.9441 -3.19944,1.7165 -3.42002,1.7165 -0.22058,0 -0.80382,-0.3858 -1.29609,-0.8575 l -0.89503,-0.8575 -3.06549,1.743 -3.06548,1.7429 0.10895,1.5204 0.10894,1.5203 -3.08159,1.7425 c -2.95494,1.6709 -3.08782,1.7125 -3.23322,1.0109 z m 7.4205,-12.1698 0.77236,-0.5011 -0.93903,-0.7843 c -0.51646,-0.4314 -1.37189,-1.1072 -1.90096,-1.502 l -0.96193,-0.7176 0.24245,1.9405 c 0.39317,3.1469 0.36908,3.1333 2.78711,1.5645 z m -152.98119,-1.3301 -1.20883,-0.9151 5.6422,-7.918 5.6422,-7.9179 1.30952,0.9263 c 0.72023,0.5095 1.31272,1.0144 1.31663,1.1221 0.013,0.3567 -10.81961,15.4234 -11.15954,15.5216 -0.18334,0.053 -0.87732,-0.3156 -1.54218,-0.819 z m 173.54217,-8.6988 c -1.46667,-1.5951 -4.5086,-4.8666 -6.75984,-7.2701 l -4.09318,-4.3699 4.56357,-4.2367 c 2.88944,-2.68248 5.18584,-4.52645 6.25984,-5.02654 3.41116,-1.58837 6.72838,-0.68884 8.81113,2.3893 1.04977,1.55148 1.10787,1.78655 0.99541,4.02684 l -0.11943,2.3791 3.33791,0.7272 c 4.97274,1.0833 4.66764,0.948 3.9456,1.7489 -0.33423,0.3707 -1.60376,1.558 -2.82118,2.6385 l -2.2135,1.9644 -3.2865,-0.7983 c -3.00404,-0.7298 -3.33765,-0.7532 -3.88169,-0.2729 -0.56164,0.4958 -0.4808,0.6408 1.43407,2.5729 l 2.02927,2.0474 -2.35699,2.2235 c -1.29634,1.2229 -2.54168,2.2084 -2.76741,2.19 -0.22573,-0.019 -1.61042,-1.3386 -3.07708,-2.9336 z m 2.47226,-10.838 c 1.58751,-1.6176 1.89258,-2.9819 0.83903,-3.7523 -0.96466,-0.7054 -1.61161,-0.5323 -3.43386,0.9186 l -1.70965,1.3613 1.20626,1.472 c 0.66345,0.8097 1.30696,1.4721 1.43004,1.4721 0.12308,0 0.87376,-0.6623 1.66818,-1.4717 z m -189.88743,8.3884 -1.04595,-1.0833 0.96987,-7.3334 c 0.53343,-4.0333 0.97468,-7.70622 0.98056,-8.16201 0.009,-0.6979 -0.68714,-0.1323 -4.41044,3.58331 -2.43162,2.4266 -4.5772,4.4121 -4.76794,4.4121 -0.19075,0 -0.8234,-0.4917 -1.40589,-1.0927 l -1.05908,-1.0927 6.74667,-6.74066 c 3.71067,-3.70736 6.90668,-6.74065 7.10225,-6.74065 0.61558,0 1.80513,1.51039 1.80513,2.29201 0,0.41197 -0.45397,4.21083 -1.00882,8.4419 -0.55486,4.2311 -0.95448,7.7472 -0.88806,7.8137 0.0664,0.066 2.25365,-1.9261 4.86052,-4.4277 l 4.73975,-4.54842 1.1559,1.12032 1.1559,1.1204 -6.75455,6.7605 c -3.715,3.7184 -6.83899,6.7606 -6.94221,6.7606 -0.10321,0 -0.65833,-0.4875 -1.23361,-1.0833 z m 86.58184,-2.7331 c -14.35069,-1.674 -28.30856,-6.1597 -40.01927,-12.86127 -2.91704,-1.66929 -3.33427,-2.06446 -2.63562,-2.49625 0.50138,-0.30987 8.70556,-10.39448 13.86947,-17.0484 7.12169,-9.17662 16.94658,-22.57132 30.86642,-42.08154 7.14026,-10.00786 13.10234,-18.24088 13.24908,-18.2956 0.14673,-0.0547 3.245,1.95645 6.88502,4.46925 12.88839,8.89718 23.64708,16.05107 25.69013,17.0824 8.0821,4.07983 17.28408,5.8866 25.86955,5.07939 11.51743,-1.08288 21.28855,-5.43087 29.35014,-13.06035 5.18718,-4.90914 9.26867,-10.86397 12.07794,-17.62153 0.6741,-1.6215 0.77064,-1.72632 0.78264,-0.84968 0.027,1.96895 -1.03334,10.07563 -1.85288,14.16667 -6.94046,34.64597 -30.95782,63.50358 -63.79929,76.65681 -7.30984,2.9277 -15.33101,5.0838 -23.82283,6.4038 -5.63545,0.8759 -20.69156,1.1351 -26.5105,0.4563 z m 118.61722,-21.59703 -8.21612,-6.02437 2.01554,-2.76404 2.01553,-2.76405 1.7123,1.23296 c 8.37173,6.02813 14.50391,10.61657 14.51219,10.85885 0.008,0.23092 -2.76871,4.25299 -3.6332,5.2629 -0.10457,0.12216 -3.88738,-2.48885 -8.40624,-5.80225 z m -170.16789,1.15877 c -15.72468,-11.98886 -27.52548,-27.50226 -34.54418,-45.41198 -9.67268,-24.68192 -9.58589,-52.67725 0.23912,-77.13157 1.89444,-4.71524 6.63546,-14.27067 7.3921,-14.89862 0.30755,-0.25524 2.0167,0.8226 6.52352,4.11394 12.37522,9.03767 33.36636,23.7088 64.48913,45.07277 l 9.69715,6.65652 -1.68012,2.67681 c -21.01514,33.48197 -36.80027,60.10166 -45.22127,76.26015 -1.50483,2.8875 -2.91051,5.24821 -3.12375,5.24601 -0.21323,-0.002 -1.9105,-1.165 -3.7717,-2.58403 z m -55.04017,-0.78412 c -2.68801,-1.33055 -4.74249,-4.9292 -4.74249,-8.30703 v -1.65416 h 1.45706 1.45705 l 0.22852,1.72261 c 0.58389,4.40158 3.22119,6.91356 5.1907,4.94405 0.87542,-0.87541 0.84143,-1.71684 -0.19689,-4.87412 -1.55743,-4.7358 -1.1531,-7.16864 1.44441,-8.69088 4.76044,-2.78981 10.41915,2.09846 10.41915,9.00057 v 2.09508 l -1.52074,-0.18199 -1.52073,-0.18199 -0.10817,-2.0226 c -0.12577,-2.35175 -1.01989,-4.33316 -2.52799,-5.60214 -1.25495,-1.05597 -1.63713,-1.08135 -2.77742,-0.1844 -1.11904,0.88024 -1.12243,1.81142 -0.0189,5.18326 1.58791,4.8517 0.99742,7.46593 -1.99311,8.82407 -1.78637,0.81127 -3.04682,0.79276 -4.79049,-0.0703 z m 240.63546,-13.96413 c -0.57454,-1.28494 -1.04463,-2.45952 -1.04463,-2.61016 0,-0.15064 0.67944,-0.76183 1.50986,-1.35819 1.69823,-1.21958 3.82348,-4.14029 3.82348,-5.25459 0,-1.34398 -0.70796,-1.20413 -2.11295,0.4174 -5.38159,6.21096 -7.24184,7.0787 -10.89278,5.08109 -0.64481,-0.35281 -1.54481,-1.18499 -2,-1.84929 -0.71361,-1.04145 -0.82761,-1.57945 -0.82761,-3.90591 0,-2.37391 0.131,-2.9642 1.09028,-4.91276 1.26213,-2.56375 3.49653,-5.1874 5.19829,-6.10386 0.65181,-0.35102 1.24063,-0.5698 1.30848,-0.48618 0.37697,0.46463 2.61216,4.7159 2.51667,4.78665 -2.249,1.66653 -2.88859,2.27844 -3.67295,3.514 -2.15995,3.40242 -0.46021,3.71794 2.18296,0.40522 4.04368,-5.068 6.45533,-6.00725 10.03621,-3.90872 4.05666,2.37736 3.71129,8.78479 -0.77783,14.43046 -1.18163,1.48605 -4.4183,4.09111 -5.08303,4.09111 -0.1154,0 -0.6799,-1.05132 -1.25445,-2.33627 z M 423.86964,964.42462 c -1.62262,-3.8023 -3.01558,-7.08363 -3.09548,-7.29184 -0.0799,-0.20821 0.4868,-0.63147 1.25932,-0.94057 1.63052,-0.6524 1.51032,-0.75931 2.8746,2.55676 0.50888,1.23691 1.04868,2.24941 1.19956,2.25 0.15088,6e-4 3.44035,-1.35461 7.30993,-3.01158 3.86958,-1.65696 7.20467,-2.94779 7.4113,-2.8685 0.20663,0.0793 0.61861,0.7626 0.91552,1.51845 l 0.53984,1.37428 -1.05879,0.44457 c -0.58234,0.24451 -3.93535,1.67918 -7.45114,3.18816 l -6.39235,2.74359 1.14235,2.66893 c 0.62829,1.46791 1.14235,2.77551 1.14235,2.90576 0,0.13026 -0.5625,0.45372 -1.25,0.7188 -0.6875,0.26509 -1.32804,0.52123 -1.42341,0.56921 -0.0954,0.048 -1.50099,-3.02373 -3.1236,-6.82602 z m 917.13026,-12.25955 c -11.2522,-1.53847 -21.3114,-6.05967 -30.1331,-13.54367 -0.3085,-0.26164 10.9408,-13.95468 11.4641,-13.95468 0.1605,0 1.3456,0.79282 2.6337,1.76181 5.1337,3.86202 10.1521,6.36121 15.6851,7.81133 4.5574,1.1944 11.1045,1.26592 14.625,0.15975 6.2702,-1.97015 8.7012,-8.13925 4.8758,-12.37345 -2.1348,-2.363 -6.3777,-4.14649 -15.9839,-6.71878 -16.8954,-4.52416 -24.047,-8.64316 -27.5104,-15.84484 -1.746,-3.63041 -2.1463,-5.76304 -2.1515,-11.46249 -0.01,-5.79429 0.3906,-7.84069 2.2895,-11.83333 3.2865,-6.91032 9.9984,-12.0782 18.7057,-14.4026 3.0936,-0.82583 3.8368,-0.89121 10.3334,-0.90904 5.4413,-0.0149 7.668,0.11342 10,0.57644 4.9011,0.97313 9.4164,2.49016 13.6666,4.59167 4.3228,2.13736 9.27,5.44617 9.1033,6.08853 -0.1487,0.57294 -9.7281,14.52522 -9.984,14.54144 -0.1177,0.007 -1.5427,-0.82142 -3.1666,-1.84195 -7.691,-4.83321 -15.0502,-7.13292 -21.4527,-6.70389 -3.682,0.24673 -5.6187,0.94808 -7.6424,2.76762 -1.8234,1.63933 -2.4845,3.12504 -2.4324,5.46583 0.1147,5.15026 3.5291,7.2207 18.6321,11.29824 17.5235,4.73102 25.177,10.03814 27.9164,19.3578 1.9331,6.57648 1.0927,15.23854 -2.0371,20.99541 -1.3941,2.56438 -1.918,3.26736 -4.2035,5.64081 -6.8338,7.0965 -19.6559,10.38837 -33.2331,8.53204 z M 759.99997,906.66672 v -44.66667 h 9.83333 9.83333 v 44.66667 44.66667 h -9.83333 -9.83333 z m 57.66666,0 v -44.66667 h 20.78967 c 23.02241,0 23.88464,0.0615 29.96449,2.13633 9.5799,3.26931 16.30544,10.37036 18.9711,20.03034 0.62852,2.27767 0.73843,3.54191 0.75342,8.66667 0.0153,5.21539 -0.0802,6.35824 -0.73014,8.73954 -3.03048,11.10355 -11.01801,18.40508 -23.64792,21.61695 -4.13858,1.05247 -9.42422,1.46929 -18.68396,1.4734 l -7.74999,0.003 v 13.33334 13.33333 h -9.83334 -9.83333 z m 41.3901,-0.60286 c 4.08455,-1.36097 7.36858,-4.53125 8.6443,-8.34489 0.58289,-1.7425 0.68253,-2.68061 0.56644,-5.33333 -0.17616,-4.02566 -1.10474,-6.1711 -3.75634,-8.67887 -3.63674,-3.43949 -6.29384,-4.02649 -18.26117,-4.03426 l -8.91666,-0.006 v 13.68925 13.68924 l 9.74999,-0.12025 c 9.00222,-0.11103 9.92053,-0.17707 11.97344,-0.8611 z m 93.60989,0.60286 v -44.66667 h 20.78967 c 23.02242,0 23.88464,0.0615 29.96451,2.13633 10.4249,3.55767 17.5757,11.86282 19.4451,22.58407 0.4075,2.33706 0.497,4.27607 0.3592,7.7796 -0.193,4.90494 -0.7292,7.53891 -2.326,11.42536 -2.9424,7.16158 -10.0408,13.37979 -18.4703,16.17998 -5.91012,1.96328 -8.37904,2.27081 -19.84551,2.47197 l -10.25,0.17982 v 13.28811 13.2881 h -9.83333 -9.83334 z m 39.63416,-0.17958 c 4.58098,-1.07982 8.21142,-3.87241 9.90462,-7.61889 1.2959,-2.86712 1.4916,-6.88468 0.4952,-10.16505 -1.3038,-4.29255 -5.11168,-7.4518 -10.30942,-8.55343 -1.59568,-0.33819 -4.7453,-0.47311 -11.14122,-0.47726 l -8.91667,-0.006 v 13.66667 13.66666 l 8.91667,-0.005 c 6.7709,-0.004 9.43024,-0.12599 11.05082,-0.50799 z m 42.17182,44.26786 c 0.1179,-0.32355 8.7112,-20.57578 19.0963,-45.00495 l 18.8819,-44.41666 9.1912,0.005 9.1913,0.005 19,44.6757 c 10.45,24.57163 19.05,44.8195 19.1111,44.99525 0.069,0.19937 -3.7703,0.31956 -10.2085,0.31956 h -10.3196 l -3.3541,-8.25 c -1.8447,-4.5375 -3.6834,-9.0375 -4.0859,-10 l -0.7319,-1.75 h -18.8924 -18.8923 l -4.0374,9.91667 -4.0373,9.91666 -10.0634,0.0883 c -9.496,0.0833 -10.0513,0.0551 -9.849,-0.5 z m 58.4264,-37.43827 c -0.323,-1.23519 -11.3684,-27.98351 -11.5525,-27.97652 -0.1713,0.006 -11.3957,27.24683 -11.621,28.20259 -0.09,0.38083 1.8527,0.45726 11.6222,0.45726 11.6612,0 11.729,-0.004 11.5513,-0.68333 z m 60.7676,-6.66594 v -44.68261 l 24.5833,0.11443 24.5834,0.11442 3.4647,0.90802 c 11.9037,3.11959 19.2548,10.40564 21.5089,21.31841 0.7015,3.3961 0.6999,10.7626 0,14.17398 -1.8324,8.89251 -7.1079,15.53968 -15.5166,19.55078 l -2.8793,1.37348 10.4873,15.32251 c 5.768,8.42738 10.6315,15.58501 10.8077,15.90585 0.3023,0.55046 -0.3257,0.58333 -11.1434,0.58333 h -11.4639 l -9.623,-14.33929 -9.623,-14.3393 -7.6749,0.0893 -7.6749,0.0893 -0.087,14.25 -0.087,14.25 h -9.8297 -9.8298 z m 44.377,-1.79749 c 5.8191,-1.23341 9.3347,-4.72873 10.2934,-10.23413 0.9544,-5.48036 -1.5707,-10.82304 -6.1823,-13.08116 -3.385,-1.65742 -5.2853,-1.85918 -17.5714,-1.8655 l -11.25,-0.006 v 12.83333 12.83334 l 11.25,-0.006 c 8.3744,-0.004 11.815,-0.12554 13.4603,-0.4743 z m 63.9563,1.81342 v -44.66667 h 9.8334 9.8333 v 44.66667 44.66667 h -9.8333 -9.8334 z m -845.0026,38.15711 c -0.23245,-0.83026 -0.32822,-1.60399 -0.2128,-1.7194 0.11541,-0.11541 4.28539,-1.31817 9.26663,-2.67279 6.81258,-1.85265 9.11968,-2.36118 9.31063,-2.05222 0.34335,0.55555 0.72174,2.64823 0.51604,2.85393 -0.11676,0.11676 -18.04563,5.07946 -18.41783,5.09804 -0.022,10e-4 -0.23021,-0.6773 -0.46267,-1.50756 z m -2.99965,-12.53117 c -0.001,-0.0693 -0.43935,-3.57537 -0.97348,-7.79135 -0.53413,-4.21597 -0.94558,-7.68425 -0.91433,-7.70729 0.0312,-0.023 0.7453,-0.14169 1.5868,-0.26368 l 1.52999,-0.2218 0.347,2.86164 c 0.19085,1.5739 0.43394,2.94858 0.54021,3.05485 0.10626,0.10626 3.71924,-0.24676 8.02884,-0.7845 8.66678,-1.08142 8.19063,-1.15429 8.19063,1.25346 0,1.01627 -0.12943,1.3092 -0.58333,1.3202 -1.16554,0.0282 -15.07324,1.86525 -15.1938,2.0069 -0.0682,0.0801 0.0255,1.38643 0.20815,2.90295 0.18267,1.51653 0.26729,2.82216 0.18804,2.90141 -0.19195,0.19194 -2.95174,0.62833 -2.95472,0.46721 z m 195.33566,-5.32702 c -2.86433,-0.43938 -7.64982,-2.06245 -10.00951,-3.39488 -4.31809,-2.43828 -29.31319,-18.76348 -29.19866,-19.07071 0.0683,-0.18333 3.16738,-4.68333 6.88675,-10 6.2732,-8.96723 17.61575,-25.42656 24.98082,-36.25 1.71536,-2.52083 3.22587,-4.58333 3.35669,-4.58333 0.13081,0 6.5932,4.21815 14.36087,9.37368 11.60061,7.6995 14.57122,9.82786 16.63241,11.91666 5.81596,5.89386 8.76033,13.1511 8.74031,21.54299 -0.0182,7.63092 -2.08023,13.42834 -6.94989,19.53975 -4.09332,5.13711 -10.03096,8.81948 -16.88131,10.46934 -2.65926,0.64047 -9.10876,0.88749 -11.91848,0.4565 z m 89.3728,-1.54332 -1.1272,-0.13771 0.22218,-2.89228 c 0.1222,-1.59075 0.31351,-4.05477 0.42512,-5.47561 l 0.20294,-2.58333 h -1.0014 c -0.55077,0 -1.67644,-0.0925 -2.50149,-0.20561 l -1.50008,-0.20561 -0.21944,2.78894 c -0.12069,1.53392 -0.30906,3.72645 -0.4186,4.87228 l -0.19917,2.08333 h -1.30496 c -0.82067,0 -1.37247,-0.17591 -1.48686,-0.47401 -0.10004,-0.2607 -0.0138,-2.45418 0.19163,-4.87439 0.20544,-2.42021 0.3295,-4.44042 0.27569,-4.48936 -0.0538,-0.0489 -1.22283,-0.14296 -2.59783,-0.20894 l -2.5,-0.11996 -0.38944,4.66666 c -0.21419,2.56667 -0.40169,5.00417 -0.41667,5.41667 -0.0241,0.66263 -0.20196,0.75 -1.52723,0.75 -1.3243,0 -1.5,-0.0861 -1.5,-0.73506 0,-0.92402 1.02806,-13.73984 1.10786,-13.81054 0.1721,-0.15251 18.88791,1.43026 19.0704,1.61275 0.11905,0.11904 -0.0224,3.20425 -0.31424,6.85602 -0.29188,3.65177 -0.53069,6.81296 -0.53069,7.02487 0,0.21191 -0.1875,0.36129 -0.41666,0.33195 -0.22917,-0.0293 -0.92391,-0.11532 -1.54386,-0.19106 z M 420.49998,906.164 c -0.18333,-0.0642 -2.24583,-0.21748 -4.58333,-0.34058 l -4.25,-0.22383 0.005,-1.21643 c 0.009,-2.24422 -0.087,-2.21801 6.56848,-1.78619 4.06286,0.26361 6.34399,0.28007 7.1709,0.0517 1.3167,-0.36356 2.79937,-1.87661 3.13006,-3.19419 0.33154,-1.32096 -0.0744,-3.75449 -0.751,-4.50213 -1.26646,-1.39942 -2.4042,-1.67673 -8.75674,-2.13431 -3.41008,-0.24562 -6.23764,-0.45517 -6.28347,-0.46565 -0.0458,-0.0105 -0.0833,-0.78031 -0.0833,-1.71074 v -1.69169 l 3.08333,0.21322 c 9.57512,0.66215 10.51151,0.7892 12.22817,1.65909 5.97957,3.03008 4.955,13.52307 -1.47862,15.14308 -1.35103,0.34019 -5.22883,0.46856 -5.99955,0.1986 z m 264.54725,-7.55022 c -3.83835,-1.89993 -5.31161,-8.18473 -2.85142,-12.16398 1.54765,-2.50328 3.02353,-3.07874 10.23794,-3.99194 3.33642,-0.42232 6.31953,-0.7731 6.62913,-0.7795 0.4152,-0.009 0.62254,0.38601 0.79015,1.50376 0.12499,0.83347 0.1523,1.59035 0.0607,1.68196 -0.0916,0.0916 -2.77217,0.47353 -5.95682,0.84872 -6.50641,0.76653 -8.30144,1.36668 -9.18653,3.07139 -1.16248,2.23899 -0.48525,5.09758 1.52889,6.45342 1.40975,0.94899 2.535,0.96098 9.5152,0.10142 2.92297,-0.35994 5.33934,-0.62096 5.36971,-0.58004 0.0304,0.0409 0.14819,0.78483 0.26183,1.65314 0.24408,1.86492 0.70964,1.66747 -5.68216,2.40987 -6.27602,0.72896 -8.92733,0.67745 -10.71661,-0.20822 z M 543.81366,887.94479 c -29.35679,-18.88204 -50.64244,-32.30488 -62.81368,-39.6106 -3.75833,-2.25592 -7.04466,-4.29566 -7.30294,-4.53275 -0.39744,-0.36483 -0.16691,-0.80111 1.5,-2.83877 10.0285,-12.259 21.25507,-21.20705 35.30294,-28.13792 9.68147,-4.7766 18.88399,-7.75992 29.16666,-9.45541 12.62926,-2.08241 27.01662,-1.7262 39.5,0.97797 27.20625,5.89345 51.39922,22.91289 66.31641,46.65274 1.99251,3.17096 6.85025,12.28642 6.85025,12.85435 0,0.12804 -1.66972,-1.38036 -3.71048,-3.352 -3.48265,-3.36467 -5.07848,-4.49311 -25.98843,-18.37691 -12.25287,-8.13566 -22.41495,-14.79211 -22.5824,-14.79211 -0.50176,0 -22.60623,33.95465 -37.54098,57.66667 -3.63731,5.775 -6.63663,10.53385 -6.66515,10.57521 -0.0285,0.0414 -5.443,-3.39235 -12.0322,-7.63047 z m -128.06368,-9.651 c -0.59583,-0.17204 -1.08471,-0.42101 -1.0864,-0.55327 -0.003,-0.20718 3.719,-14.79268 3.82063,-14.97345 0.0349,-0.062 2.93232,0.60886 3.08637,0.71461 0.0388,0.0267 -0.28802,1.35192 -0.72633,2.94504 -0.43831,1.59312 -0.69508,2.95183 -0.5706,3.01935 0.12448,0.0675 3.63883,0.99965 7.80966,2.0714 8.20304,2.10786 7.87948,1.91844 7.14105,4.18052 l -0.39105,1.19793 -7.33333,-1.94089 c -4.03333,-1.0675 -7.57803,-1.94407 -7.87709,-1.94794 -0.37376,-0.005 -0.66589,0.48797 -0.93439,1.5763 -1.12117,4.54444 -0.92181,4.29271 -2.93852,3.7104 z m 263.33332,-3.62247 c -0.77916,-0.35127 -1.41666,-0.72582 -1.41666,-0.83234 0,-0.10652 0.22876,-0.74118 0.50836,-1.41035 0.50625,-1.21164 0.50357,-1.22161 -0.64706,-2.40596 -2.84335,-2.9267 -3.74753,-7.97309 -2.06456,-11.52262 1.70502,-3.59603 5.0537,-5.65287 9.20326,-5.65287 2.99684,0 4.95292,0.77246 6.90875,2.72829 2.71726,2.71727 3.79666,7.12874 2.61485,10.68683 -0.71432,2.15064 -2.79915,4.52036 -4.98249,5.66334 -1.45798,0.76326 -2.14409,0.89936 -4.69064,0.93048 l -2.98287,0.0364 -0.51713,1.20871 -0.51714,1.20871 z m 8.15114,-5.88269 c 1.47494,-0.52478 3.24527,-2.26112 3.81552,-3.74227 0.83134,-2.15931 0.0492,-5.61641 -1.61005,-7.11693 -1.03458,-0.93557 -2.98125,-1.59652 -4.67923,-1.58872 -5.34146,0.0245 -8.81755,5.85948 -5.98272,10.04255 0.3971,0.58597 0.87904,1.1168 1.07096,1.17963 0.19192,0.0628 0.61969,-0.63869 0.95061,-1.55894 0.33092,-0.92025 0.7157,-1.74365 0.85506,-1.82979 0.13937,-0.0861 0.87666,0.0882 1.63843,0.38745 1.52155,0.59768 1.52393,0.61957 0.35182,3.23575 -0.57361,1.28032 -0.5766,1.38356 -0.0459,1.58769 0.67073,0.25798 1.71613,0.0865 3.63546,-0.59642 z m -20.2547,-21.82824 c -0.38525,-0.75514 -0.5758,-1.49755 -0.42344,-1.64978 0.15235,-0.15223 3.952,-2.28853 8.44367,-4.74733 l 8.16667,-4.47053 0.74829,1.20365 c 0.41156,0.66201 0.74906,1.37948 0.75,1.59437 10e-4,0.319 -16.24414,9.44261 -16.81354,9.44261 -0.0942,0 -0.48641,-0.61784 -0.87165,-1.37299 z m -226.87014,-3.2716 c -3.54173,-1.27504 -5.97463,-3.56419 -7.69829,-7.24344 -0.80286,-1.71377 -0.91133,-2.34291 -0.91133,-5.28597 0,-3.10408 0.0767,-3.49359 1.08361,-5.5 1.8516,-3.68972 4.40872,-5.89949 8.13742,-7.03205 3.93525,-1.19529 7.73056,-0.61054 11.23767,1.73142 4.78217,3.19341 6.83325,9.29888 5.0468,15.02286 -1.19338,3.8237 -4.71859,7.3458 -8.46621,8.45872 -2.31134,0.6864 -6.30134,0.61467 -8.42967,-0.15154 z m 220.1316,-8.05334 -0.83157,-1.06255 2.11122,-8.1926 c 1.16117,-4.50593 2.05339,-8.25043 1.98271,-8.3211 -0.0707,-0.0707 -2.4748,1.70467 -5.34251,3.94521 l -5.21401,4.07372 -0.95999,-1.12237 c -0.52799,-0.61731 -0.96161,-1.27238 -0.9636,-1.45571 -0.003,-0.29839 14.26788,-11.52135 14.96373,-11.76764 0.15691,-0.0555 0.69707,0.43891 1.20037,1.09876 l 0.91508,1.19973 -2.0289,7.8959 c -1.11589,4.34274 -1.97217,7.95262 -1.90284,8.02195 0.0693,0.0693 2.40791,-1.6446 5.19684,-3.80874 l 5.07077,-3.93481 0.9474,1.13483 c 0.52107,0.62416 0.94009,1.2905 0.93116,1.48076 -0.014,0.29787 -14.2748,11.50662 -14.98536,11.77824 -0.14241,0.0544 -0.63313,-0.37917 -1.0905,-0.96358 z m -18.30184,-21.08257 -1.22728,-1.0842 2.61604,-3.10829 2.61604,-3.1083 -3.5006,-2.9509 -3.50059,-2.95091 -2.52241,2.99155 c -1.38732,1.64535 -2.68699,2.98716 -2.88816,2.98178 -0.20117,-0.005 -0.852,-0.45213 -1.44629,-0.9928 l -1.08054,-0.98302 5.99234,-7.15119 c 3.29578,-3.93316 6.14364,-7.24471 6.32857,-7.359 0.33232,-0.20538 2.67349,1.36796 2.67349,1.79667 0,0.12197 -0.9375,1.35274 -2.08333,2.73504 -1.14584,1.38231 -2.2638,2.73411 -2.48437,3.004 -0.33384,0.40849 0.18998,0.98727 3.1259,3.45392 2.96447,2.49064 3.5866,2.88355 3.90104,2.46376 1.20198,-1.60476 4.66255,-5.62275 4.8356,-5.6145 0.29346,0.014 2.37183,1.9384 2.37183,2.19615 0,0.26617 -11.98042,14.60096 -12.28224,14.69592 -0.11977,0.0377 -0.77004,-0.41937 -1.44504,-1.01568 z M 472.78051,800.94687 c -2.90429,-4.06258 -5.3927,-7.57368 -5.5298,-7.80243 -0.29399,-0.49054 5.57177,-4.80847 7.97823,-5.87295 4.29288,-1.89895 8.90087,1.05313 8.92728,5.7192 0.0147,2.6005 -1.19523,4.5454 -4.17694,6.71411 -1.27195,0.92514 -2.31264,1.78666 -2.31264,1.91449 0,0.12783 0.75364,1.27829 1.67475,2.55659 l 1.67475,2.32417 -1.09142,0.9077 c -0.60027,0.49923 -1.26517,0.91173 -1.47754,0.91667 -0.21237,0.005 -2.76237,-3.31497 -5.66667,-7.37755 z m 6.34386,-4.59457 c 0.52674,-0.46874 1.17108,-1.3513 1.43186,-1.96124 0.42409,-0.99194 0.41096,-1.23773 -0.12439,-2.32865 -1.27115,-2.59031 -3.35759,-2.65621 -6.71646,-0.21214 l -2.07505,1.50991 0.74656,1.06993 c 0.41061,0.58847 1.32317,1.86001 2.0279,2.82566 l 1.28134,1.75572 1.23526,-0.90347 c 0.67939,-0.4969 1.66623,-1.28698 2.19298,-1.75572 z m 140.45744,1.84307 c -4.71396,-1.26816 -8.02003,-5.94622 -7.47207,-10.57291 0.9509,-8.02878 9.37425,-11.78654 16.10065,-7.18267 1.50682,1.03134 3.78958,4.09904 3.78958,5.09265 0,0.31323 -2.21756,1.46761 -2.81927,1.46761 -0.0765,0 -0.54393,-0.74377 -1.0387,-1.65283 -2.29043,-4.20827 -7.27754,-4.89951 -10.54101,-1.46103 -1.82162,1.9193 -2.46601,5.19616 -1.484,7.54644 0.57661,1.38003 2.47565,3.04795 4.06903,3.57381 0.72099,0.23795 1.99069,0.33316 3.02261,0.22666 l 1.77938,-0.18365 0.39272,1.31078 c 0.216,0.72093 0.30557,1.39793 0.19906,1.50445 -0.2856,0.2856 -2.61823,0.78837 -3.57982,0.77159 -0.45833,-0.008 -1.5465,-0.20641 -2.41816,-0.4409 z m -120.35772,-5.3212 c -2.17474,-0.60933 -4.16974,-2.06666 -5.46513,-3.99224 -1.30329,-1.93732 -1.75467,-3.45443 -1.75712,-5.90584 -0.004,-3.86376 2.06068,-7.13924 5.59332,-8.87399 1.63359,-0.8022 2.30825,-0.93539 4.73815,-0.93539 2.51494,0 3.03309,0.11065 4.61091,0.98465 2.12007,1.17438 3.20262,2.38253 4.34458,4.84869 1.75601,3.79225 0.79947,8.72339 -2.20364,11.36016 -2.68766,2.3598 -6.73167,3.39077 -9.86107,2.51396 z m 4.84887,-3.22212 c 4.90469,-1.36217 6.14725,-7.83247 2.21772,-11.54822 -1.38416,-1.30886 -2.55539,-1.77045 -4.49235,-1.77045 -3.4414,0 -6.45399,3.04907 -6.46316,6.54143 -0.006,2.36749 2.07138,5.36598 4.49814,6.49195 1.52629,0.70817 2.48475,0.77267 4.23965,0.28529 z m 89.54697,-2.73158 -6.54671,-2.03104 0.28273,-0.86136 c 0.1555,-0.47375 1.43042,-4.61136 2.83314,-9.19469 1.40273,-4.58333 2.5933,-8.38012 2.64572,-8.43729 0.095,-0.10359 13.12436,3.87893 13.56192,4.14529 0.24269,0.14774 -0.31462,2.09854 -0.73312,2.5662 -0.13496,0.15081 -2.52602,-0.42515 -5.31347,-1.27993 -2.78745,-0.85477 -5.10996,-1.50316 -5.16114,-1.44086 -0.0512,0.0623 -0.40026,1.13599 -0.77573,2.38599 -0.48407,1.61154 -0.57076,2.30909 -0.29798,2.39772 0.21157,0.0687 2.25968,0.68662 4.55135,1.37307 2.29167,0.68645 4.21456,1.28037 4.2731,1.31983 0.2594,0.17484 -0.74977,2.80318 -1.07586,2.80205 -0.20015,-7e-4 -2.30525,-0.59685 -4.678,-1.32479 -2.37276,-0.72794 -4.34398,-1.28987 -4.3805,-1.24874 -0.17746,0.19991 -1.43346,4.72452 -1.33798,4.81999 0.0604,0.0604 2.3382,0.79167 5.06169,1.62495 2.7235,0.83329 5.05962,1.58169 5.19137,1.66312 0.38764,0.23957 -0.57654,2.62788 -1.08699,2.69247 -0.25675,0.0325 -3.41285,-0.8549 -7.01354,-1.97198 z m -69.95329,-1.48783 c 0,-0.0741 -0.90161,-4.26348 -2.00358,-9.3097 -1.10198,-5.04622 -1.92619,-9.30018 -1.83159,-9.45325 0.19459,-0.31485 2.79881,-0.81712 3.03129,-0.58464 0.0832,0.0832 0.90328,3.57828 1.82248,7.76693 0.91921,4.18865 1.72977,7.67422 1.80126,7.7457 0.0715,0.0715 2.25663,-0.34837 4.85588,-0.93301 2.59925,-0.58464 4.84234,-0.93585 4.98465,-0.78047 0.14232,0.15538 0.35625,0.83172 0.47541,1.50297 l 0.21666,1.22046 -3.0929,0.69719 c -7.05584,1.59052 -10.25956,2.25496 -10.25956,2.12782 z m 46.82108,-3.33509 -1.01226,-0.12914 0.91328,-7.73418 c 0.50231,-4.2538 0.92032,-7.90355 0.92893,-8.11056 0.01,-0.23114 -1.10991,-0.4884 -2.90103,-0.66667 l -2.91667,-0.29029 0.0289,-1.41773 c 0.0159,-0.77976 0.10582,-1.49471 0.19989,-1.58878 0.22881,-0.22881 15.04918,1.49789 15.30476,1.78312 0.11008,0.12287 0.13104,0.86918 0.0466,1.65847 -0.14395,1.34501 -0.20881,1.42434 -1.03349,1.26403 -0.48394,-0.0941 -1.8924,-0.26984 -3.1299,-0.39058 -2.05161,-0.20017 -2.25039,-0.16467 -2.25447,0.40264 -0.002,0.34219 -0.37633,3.77217 -0.83083,7.62217 -0.4545,3.85 -0.82748,7.1875 -0.82886,7.41666 -0.002,0.40782 -0.47129,0.44154 -2.51476,0.18084 z m -23.26894,-4.21511 -0.22072,-3.86455 -4.15734,-5.59226 c -2.28653,-3.07574 -4.0486,-5.61786 -3.91571,-5.64916 0.1329,-0.0313 1.03061,-0.12193 1.99492,-0.20139 l 1.75328,-0.14447 2.38861,3.36805 c 1.31373,1.85243 2.6468,3.70614 2.96237,4.11935 0.57012,0.74652 0.58915,0.72353 2.9915,-3.61301 1.32976,-2.40036 2.60177,-4.43492 2.8267,-4.52123 0.22493,-0.0863 1.10462,-0.11046 1.95488,-0.0537 l 1.54592,0.10327 -3.45112,6 -3.45111,6 0.22699,3.66667 c 0.12484,2.01666 0.19596,3.70882 0.15804,3.76035 -0.0379,0.0515 -0.81539,0.18209 -1.72772,0.29014 l -1.65877,0.19646 z m -256.81955,-98.96573 0.10076,-1.75 606.0833,-0.0834 606.08331,-0.0834 v 1.83342 1.83343 H 896.48254 290.29848 Z"
         id="path2" />
    </g>
  </g>
</svg>
