<?xml version="1.0" encoding="UTF-8" standalone="no"?>
<!-- Created with Inkscape (http://www.inkscape.org/) -->

<svg
   version="1.1"
   id="svg1"
   width="17200"
   height="1889.3333"
   viewBox="0 0 17200 1889.3333"
   sodipodi:docname="imperial.png"
   xmlns:inkscape="http://www.inkscape.org/namespaces/inkscape"
   xmlns:sodipodi="http://sodipodi.sourceforge.net/DTD/sodipodi-0.dtd"
   xmlns="http://www.w3.org/2000/svg"
   xmlns:svg="http://www.w3.org/2000/svg">
  <defs
     id="defs1" />
  <sodipodi:namedview
     id="namedview1"
     pagecolor="#ffffff"
     bordercolor="#000000"
     borderopacity="0.25"
     inkscape:showpageshadow="2"
     inkscape:pageopacity="0.0"
     inkscape:pagecheckerboard="0"
     inkscape:deskcolor="#d1d1d1"
     showgrid="false">
    <inkscape:page
       x="0"
       y="0"
       width="17200"
       height="1889.3333"
       id="page2"
       margin="0"
       bleed="0" />
  </sodipodi:namedview>
  <g
     inkscape:groupmode="layer"
     inkscape:label="Image"
     id="g1">
    <g
       id="g2">
      <path
         style="fill:#0000cc"
         d="M 0.32812585,1723.668 0.66666667,1557.9999 222.33333,1557.6627 444,1557.3254 V 943.99604 330.66665 H 222 0 V 165.33333 0 h 624 624 V 165.33333 330.66665 H 1026 804 v 613.32939 613.32936 l 221.6667,0.3373 221.6666,0.3372 v 165.3334 165.3333 l -623.67184,0.3347 -623.67187497,0.3348 z M 2178.2222,1888.4444 c -0.4889,-0.4889 -0.8889,-425.5904 -0.8889,-944.67007 V -0.00681957 l 255.6505,0.3367431 255.6506,0.33674311 L 2914.607,554.33331 C 3038.8919,858.84996 3140.952,1108 3141.4073,1108 c 0.4553,0 102.5204,-249.15004 226.8113,-553.66669 L 3594.202,0.66666664 3849.7677,0.32992353 4105.3333,-0.00681957 V 944.66828 1889.3434 L 3935,1889.005 3764.6667,1888.6666 3764,1184.6045 l -0.6667,-704.06205 -216.2299,496.06208 -216.2299,496.06207 -189.2623,0.3379 -189.2623,0.3379 -7.2147,-16.3379 c -3.9681,-8.9858 -101.3966,-232.4368 -216.5078,-496.55777 l -209.2931,-480.21988 -0.3346,704.55325 -0.3345,704.5532 h -169.7766 c -93.3771,0 -170.1765,-0.4 -170.6654,-0.8889 z M 5017.3333,944.62465 V -0.08395189 L 5375,0.38170167 c 383.3621,0.49910693 364.3013,0.1842207 422.3333,6.97699233 280.5781,32.842243 469.6807,164.934346 543.9704,379.974626 21.5507,62.38128 32.7179,125.4541 36.0068,203.36914 3.455,81.84761 -5.618,163.37991 -26.0501,234.09546 -69.2161,239.55658 -271.7102,385.99278 -575.9271,416.48908 -48.0648,4.8182 -72.7318,5.3781 -237,5.3788 l -161,8e-4 v 321.3333 321.3334 h -180 -180 z m 687.3334,-6.42932 c 58.3073,-7.42393 99.6797,-19.34028 141.9249,-40.87818 29.1441,-14.85856 51.2142,-31.17413 74.1581,-54.82234 42.227,-43.5233 66.8241,-98.0492 76.1093,-168.71675 3.0984,-23.58131 3.0797,-78.4182 -0.035,-102.44475 -9.2244,-71.15777 -33.0173,-125.72946 -73.4855,-168.54753 -42.6532,-45.12995 -106.6681,-76.37119 -183.2676,-89.44035 -41.4793,-7.07705 -40.6065,-7.04492 -207.071,-7.62271 l -155.6667,-0.5403 v 318.15117 318.15117 l 155,-0.54124 c 134.1609,-0.46848 157.3304,-0.83796 172.3334,-2.74819 z m 1428.6666,6.4713 V 0 h 614 614 V 165.33333 330.66665 H 7926.6667 7492 v 216.66666 216.66666 h 396.6667 396.6666 V 925.33329 1086.6666 H 7888.6667 7492 v 235.3313 235.3313 l 434.3333,0.3354 434.3334,0.3353 0.3385,165.6667 0.3385,165.6667 h -614.0052 -614.0052 z m 2120,-0.036 V -0.08168189 l 389,0.44389864 c 422.1417,0.48171785 400.1857,0.11838364 464.9997,7.69495835 116.824,13.6563489 216.441,43.2265979 294.06,87.2886209 17.608,9.995384 51.142,32.673744 67.274,45.495564 19.6,15.57914 57.205,53.51366 71.861,72.49196 64.586,83.63255 98.623,179.84357 108.962,307.99999 3.55,44.00405 1.947,114.88768 -3.588,158.66666 -24.419,193.15637 -126.694,337.84193 -298.157,421.79743 -13.707,6.7114 -24.957,12.577 -25,13.0346 -0.04,0.4576 90.822,174.397 201.922,386.5321 111.1,212.135 202,386.2125 202,386.8389 0,0.6264 -89.426,0.987 -198.725,0.8013 l -198.725,-0.3377 -182.54,-349.3333 -182.5407,-349.3334 -9.4015,0.039 c -5.1708,0.022 -84.1003,0.1715 -175.399,0.3333 l -165.9974,0.2941 -0.3359,349 -0.3358,349 -179.6667,0.3381 -179.6667,0.3382 z M 10000,880.89279 c 58.68,-6.96435 98.961,-17.35465 135.983,-35.07648 62.959,-30.13654 104.347,-79.393 123.188,-146.60785 9.965,-35.55066 13.308,-63.81224 13.313,-112.54182 0,-42.18869 -2.037,-61.15723 -9.826,-91.36604 -26.203,-101.62717 -103.88,-161.97274 -234.203,-181.94719 -46.5436,-7.13365 -45.7092,-7.10667 -236.7883,-7.65669 l -178.3334,-0.51333 V 594.64883 884.11428 L 9797,883.65081 c 163.4485,-0.41245 185.7949,-0.71605 203,-2.75802 z m 1477.333,842.44051 v -166 h 222 222 V 943.99996 330.66665 h -222 -222 V 165.33333 0 h 623.334 623.333 v 165.33333 165.33332 h -221.333 -221.334 v 613.33331 613.33334 h 221.334 221.333 v 166 166 h -623.333 -623.334 z m 1962.695,164.3333 c 0.01,-0.9167 140.025,-425.8667 311.134,-944.33331 l 311.107,-942.66662336 236.532,-0.31420094 236.532,-0.31420093 311.555,944.31416523 311.555,944.31417 -188.773,0.3379 c -103.824,0.1859 -188.931,0.1793 -189.124,-0.015 -0.194,-0.1939 -29.319,-93.797 -64.722,-208.007 l -64.369,-207.6546 -352.72,0.3358 -352.72,0.3358 -59.529,192 c -32.741,105.6 -61.708,199.05 -64.37,207.6667 l -4.841,15.6667 h -188.638 c -150.035,0 -188.631,-0.3411 -188.609,-1.6667 z m 1116.012,-720.6667 c 0.109,-2.763 -256.82,-829.40591 -257.539,-828.60338 -0.644,0.7186 -254.027,816.82758 -256.848,827.27008 -0.599,2.2164 12.279,2.3333 256.858,2.3333 141.619,0 257.507,-0.45 257.529,-1 z M 15968,944.66663 V 0 h 180 180 v 779.3333 779.3333 h 436 436 v 165.3333 165.3334 h -616 -616 z"
         id="path2" />
    </g>
  </g>
</svg>
